{"glyphs":{"0":{"ha":694,"x_min":5,"x_max":688,"o":"m 49 142 q 5 351 5 232 q 9 438 5 392 q 122 765 30 637 q 395 911 228 911 q 618 796 543 911 q 688 525 688 694 q 682 438 688 481 q 572 142 666 271 q 297 -16 457 -18 q 49 142 126 -18 m 311 118 q 471 235 412 118 q 524 438 511 316 q 530 552 530 505 q 381 776 530 777 q 217 652 270 776 q 172 438 187 582 q 168 355 168 396 q 311 118 168 118 z "},"1":{"ha":694,"x_min":95,"x_max":612,"o":"m 612 138 l 597 0 l 95 0 l 109 138 l 293 138 l 357 742 l 184 742 l 198 884 l 521 884 l 444 138 l 612 138 z "},"2":{"ha":694,"x_min":68,"x_max":663,"o":"m 83 137 l 361 410 q 496 632 486 530 q 474 741 503 696 q 384 785 445 785 q 221 662 304 785 l 123 732 q 395 914 243 914 q 589 844 514 914 q 663 665 663 774 q 593 463 663 564 q 435 293 540 385 q 266 155 435 293 l 635 155 l 618 0 l 68 0 l 83 137 z "},"3":{"ha":694,"x_min":39,"x_max":637,"o":"m 121 201 q 301 95 213 94 q 427 146 380 95 q 473 254 467 190 q 446 358 479 316 q 332 406 407 406 l 245 406 l 258 525 l 345 525 q 448 567 403 525 q 500 670 494 609 q 472 757 506 719 q 385 795 438 795 q 305 769 340 795 q 236 703 283 754 l 159 783 q 397 917 277 917 q 568 854 496 917 q 637 680 648 785 q 581 556 629 606 q 481 487 548 522 q 587 391 548 452 q 625 241 633 321 q 534 68 616 151 q 317 -26 441 -27 q 39 96 127 -26 l 121 201 z "},"4":{"ha":694,"x_min":-4,"x_max":654,"o":"m 176 320 l 382 320 l 416 644 l 176 320 m 500 0 l 349 0 l 369 195 l -4 195 l 7 301 l 464 905 l 594 905 l 533 320 l 654 320 l 642 195 l 521 195 l 500 0 z "},"5":{"ha":694,"x_min":-1,"x_max":636,"o":"m -1 90 l 76 191 q 275 84 151 84 q 416 157 353 84 q 479 288 472 221 q 480 315 480 302 q 338 449 480 448 q 263 420 311 449 q 179 353 210 391 l 68 381 l 122 894 l 636 894 l 620 741 l 217 741 l 190 481 q 270 551 221 521 q 388 586 330 587 q 564 517 495 586 q 636 324 636 444 q 524 67 636 168 q 252 -34 411 -34 q -1 90 61 -33 z "},"6":{"ha":694,"x_min":11,"x_max":671,"o":"m 172 269 q 201 138 164 191 q 326 80 243 80 q 458 157 400 80 q 511 305 511 228 q 475 414 511 376 q 373 453 438 453 q 241 406 297 453 q 172 269 180 354 m 15 374 q 134 746 39 608 q 453 911 248 911 q 671 849 549 911 l 602 734 q 438 784 541 784 q 259 682 330 784 q 180 465 202 601 q 304 563 218 528 q 411 586 365 586 q 587 525 519 586 q 662 339 662 458 q 659 296 662 319 q 552 68 646 161 q 312 -31 453 -31 q 103 45 182 -31 q 11 301 11 130 q 15 374 11 335 z "},"7":{"ha":694,"x_min":68,"x_max":686,"o":"m 216 -45 l 68 -3 l 522 743 l 83 743 l 100 894 l 686 894 l 671 754 l 216 -45 z "},"8":{"ha":694,"x_min":27,"x_max":637,"o":"m 174 248 q 213 118 164 164 q 307 80 252 80 q 421 128 372 80 q 479 248 471 176 q 349 431 491 372 q 174 248 184 353 m 267 690 q 361 557 274 595 q 500 688 491 606 q 475 774 506 738 q 397 810 445 810 q 317 780 354 810 q 267 690 278 747 m 30 245 q 244 488 46 393 q 119 686 109 585 q 224 863 132 802 q 408 914 301 914 q 562 868 500 914 q 631 726 631 818 q 473 498 631 598 q 637 275 637 404 q 538 45 637 133 q 300 -39 445 -38 q 109 20 180 -39 q 27 208 28 85 q 30 245 28 225 z "},"9":{"ha":694,"x_min":-3,"x_max":688,"o":"m -3 77 l 92 184 q 187 112 145 132 q 294 92 229 92 q 454 205 392 92 q 517 419 503 293 q 304 302 406 302 q 123 374 198 302 q 49 562 49 446 q 150 810 49 708 q 399 911 251 911 q 595 831 517 911 q 688 574 688 741 q 684 505 688 540 q 583 160 662 297 q 270 -37 471 -35 q -3 77 104 -37 m 199 600 q 232 472 193 529 q 338 411 273 411 q 476 472 423 411 q 529 621 529 533 q 498 741 529 693 q 387 795 458 795 q 261 739 313 795 q 199 600 209 684 z "},"\u0000":{"ha":0,"x_min":0,"x_max":0,"o":""},"\f":{"ha":378,"x_min":0,"x_max":0,"o":""}," ":{"ha":378,"x_min":0,"x_max":0,"o":""},"!":{"ha":326,"x_min":9,"x_max":304,"o":"m 56 239 l 130 952 l 304 952 l 229 239 l 56 239 m 9 61 q 48 138 15 106 q 127 170 81 170 q 201 138 172 170 q 225 61 231 106 q 186 -16 221 15 q 104 -46 151 -46 q 33 -15 61 -46 q 9 61 5 16 z "},"\"":{"ha":456,"x_min":81,"x_max":412,"o":"m 281 895 l 278 590 l 326 590 l 412 895 l 281 895 m 84 895 l 81 590 l 127 590 l 216 895 l 84 895 z "},"#":{"ha":743,"x_min":79,"x_max":637,"o":"m 524 735 l 518 688 l 618 697 l 605 582 l 506 571 l 491 450 l 368 437 l 384 559 l 332 553 l 317 431 l 194 418 l 209 540 l 79 526 l 92 642 l 221 655 l 227 704 l 99 690 l 110 806 l 239 819 l 248 914 l 372 926 l 361 833 l 414 837 l 423 932 l 547 947 l 536 852 l 637 861 l 625 746 l 524 735 m 345 670 l 395 674 l 400 722 l 350 716 l 345 670 z "},"$":{"ha":743,"x_min":68,"x_max":650,"o":"m 397 -138 l 235 -138 l 248 -14 q 68 111 127 9 l 171 221 q 336 117 244 117 q 418 152 382 117 q 460 241 454 187 q 387 335 465 300 q 233 404 243 399 q 151 572 151 463 q 152 613 151 591 q 214 753 161 692 q 338 834 264 810 l 351 959 l 514 959 l 500 838 q 650 746 570 819 l 553 639 q 412 713 477 713 q 347 685 373 713 q 313 605 320 656 q 388 526 308 555 q 537 463 511 480 q 620 285 618 404 q 617 243 620 266 q 411 -9 598 45 l 397 -138 z "},"%":{"ha":743,"x_min":-45,"x_max":697,"o":"m 247 903 q 359 851 317 903 q 393 719 401 799 q 333 583 384 631 q 210 534 282 534 q 103 575 144 534 q 62 690 62 616 q 113 836 62 774 q 247 903 165 903 m -45 -64 l 566 880 l 697 827 l 98 -114 l -45 -64 m 353 182 q 414 314 361 260 q 540 368 468 368 q 652 315 610 368 q 686 182 694 262 q 626 41 677 90 q 502 -8 575 -8 q 393 33 434 -8 q 351 151 351 73 q 353 182 351 165 m 193 715 q 222 658 187 658 q 262 715 256 658 q 233 776 269 776 q 193 715 199 776 m 484 176 q 514 118 479 118 q 553 176 548 118 q 525 239 560 239 q 484 176 491 239 z "},"&":{"ha":770,"x_min":12,"x_max":708,"o":"m 161 258 q 183 157 156 201 q 279 104 216 104 q 401 167 336 104 q 231 406 269 308 q 161 258 174 366 m 487 83 q 395 16 457 43 q 273 -12 334 -12 q 76 56 146 -12 q 12 217 12 118 q 61 381 12 301 q 180 505 106 457 q 152 659 142 581 q 236 823 161 758 q 407 888 311 888 q 503 871 465 888 q 591 789 548 849 l 505 703 q 370 766 458 766 q 304 680 313 766 q 320 575 300 640 q 473 600 380 597 l 484 488 q 373 477 414 488 q 495 296 439 366 q 505 336 503 316 q 503 437 510 382 l 628 458 q 628 351 632 382 q 587 201 621 281 q 708 121 613 175 l 606 0 q 487 83 562 16 z "},"'":{"ha":269,"x_min":85,"x_max":217,"o":"m 85 898 l 94 574 l 133 574 l 217 898 l 85 898 z "},"(":{"ha":441,"x_min":57,"x_max":399,"o":"m 293 1096 l 399 1034 q 210 449 236 694 q 203 327 203 387 q 227 95 203 218 q 279 -138 235 50 l 157 -198 q 57 313 57 53 q 293 1096 57 724 z "},")":{"ha":438,"x_min":41,"x_max":382,"o":"m 41 -138 q 161 144 141 88 q 232 444 216 294 q 239 574 239 509 q 167 1035 239 773 l 286 1095 q 382 601 382 867 q 151 -198 382 184 l 41 -138 z "},"*":{"ha":381,"x_min":14,"x_max":353,"o":"m 225 694 l 220 620 l 115 620 l 126 694 l 62 642 l 14 739 l 103 791 l 26 844 l 92 940 l 148 886 l 153 964 l 256 962 l 244 888 l 307 941 l 353 844 l 269 792 l 345 739 l 277 642 l 225 694 z "},"+":{"ha":690,"x_min":72,"x_max":620,"o":"m 410 133 l 282 133 l 282 369 l 72 369 l 72 500 l 282 500 l 282 724 l 410 724 l 410 500 l 620 500 l 620 369 l 410 369 l 410 133 z "},",":{"ha":353,"x_min":45,"x_max":259,"o":"m 134 -149 l 45 -130 q 95 -1 79 -73 q 114 118 98 12 l 259 118 q 213 -19 254 68 q 134 -149 172 -102 z "},"-":{"ha":528,"x_min":62,"x_max":465,"o":"m 76 500 l 465 500 l 452 370 l 62 370 l 76 500 z "},".":{"ha":338,"x_min":50,"x_max":292,"o":"m 50 107 q 95 193 56 157 q 183 228 134 228 q 265 193 233 228 q 292 107 297 157 q 247 22 286 57 q 159 -12 208 -12 q 77 22 110 -12 q 50 107 45 57 z "},"/":{"ha":534,"x_min":-80,"x_max":639,"o":"m -80 -208 l 475 982 l 639 948 l 84 -240 l -80 -208 z "},":":{"ha":338,"x_min":24,"x_max":316,"o":"m 75 583 q 120 668 80 633 q 209 703 160 703 q 291 668 259 703 q 316 583 323 633 q 271 498 311 533 q 183 463 232 463 q 102 498 134 463 q 75 583 69 533 m 24 107 q 70 193 30 157 q 159 228 110 228 q 241 193 209 228 q 267 107 273 157 q 222 22 262 57 q 133 -12 182 -12 q 52 22 84 -12 q 24 107 19 57 z "},";":{"ha":353,"x_min":14,"x_max":313,"o":"m 126 581 q 235 700 138 700 q 313 581 327 700 q 210 461 301 461 q 126 581 114 461 m 104 -149 l 14 -130 q 64 -1 47 -73 q 83 118 66 12 l 229 118 q 182 -19 224 68 q 104 -149 142 -102 z "},"<":{"ha":507,"x_min":0,"x_max":499,"o":"m 499 64 l 330 58 l 0 401 l 328 735 l 499 730 l 220 396 l 499 64 z "},"=":{"ha":612,"x_min":123,"x_max":570,"o":"m 123 488 l 570 488 l 570 353 l 123 353 l 123 488 m 123 309 l 570 309 l 570 174 l 123 174 l 123 309 z "},">":{"ha":506,"x_min":-22,"x_max":476,"o":"m -19 64 l 259 396 l -22 730 l 149 735 l 476 401 l 149 58 l -19 64 z "},"?":{"ha":758,"x_min":117,"x_max":681,"o":"m 214 83 q 252 155 218 125 q 330 186 286 186 q 404 156 376 186 q 429 83 433 126 q 389 11 423 39 q 308 -18 354 -18 q 236 11 263 -18 q 214 83 209 39 m 533 495 q 412 349 453 439 q 395 247 403 328 l 258 247 q 263 315 255 273 q 273 372 267 342 q 315 488 279 444 q 438 595 342 525 q 515 707 509 648 q 492 800 521 758 q 418 841 463 841 q 241 694 307 841 l 117 749 q 246 912 178 864 q 426 960 315 960 q 620 898 551 960 q 681 741 681 841 q 680 707 681 724 q 633 583 671 635 q 533 495 602 544 z "},"@":{"ha":1402,"x_min":46,"x_max":1320,"o":"m 869 652 l 880 708 l 1005 708 q 971 445 996 594 q 925 179 948 313 q 936 113 925 179 q 998 90 944 90 q 1119 181 1057 90 q 1181 373 1181 273 q 1051 726 1181 586 q 712 865 921 865 q 355 700 503 865 q 212 331 212 540 q 331 -49 212 109 q 656 -218 457 -218 q 892 -178 800 -218 q 1093 -30 978 -138 l 1176 -125 q 966 -285 1038 -251 q 656 -336 857 -336 q 205 -138 373 -336 q 46 331 46 47 q 241 783 46 595 q 712 970 437 970 q 1154 805 987 970 q 1320 373 1320 640 q 1200 96 1320 221 q 929 -30 1080 -30 q 802 106 846 -30 q 589 -27 707 -27 q 346 277 346 -27 q 449 571 346 437 q 735 722 563 723 q 811 700 777 722 l 869 652 m 731 605 q 600 541 662 605 q 517 294 517 457 q 533 165 517 205 q 637 98 559 98 q 740 159 680 98 q 810 277 800 220 l 857 537 q 799 583 840 560 q 731 605 758 605 z "},"A":{"ha":788,"x_min":-15,"x_max":708,"o":"m 503 206 l 216 206 l 127 -16 l -15 3 l 369 909 l 511 909 l 708 9 l 544 -16 l 503 206 m 267 335 l 479 335 l 412 696 l 267 335 z "},"B":{"ha":696,"x_min":41,"x_max":635,"o":"m 41 3 l 134 890 q 266 892 145 890 q 404 895 354 895 q 565 845 507 895 q 623 701 623 795 q 621 670 623 686 q 476 487 609 555 q 596 416 548 481 q 635 267 644 351 q 498 43 618 107 q 244 -3 410 -3 q 136 0 206 -3 q 41 3 66 3 m 288 791 l 259 528 l 321 528 q 425 567 384 528 q 468 656 463 604 q 366 793 480 792 q 288 791 338 793 m 248 422 l 217 113 l 309 113 q 427 157 382 113 q 476 269 469 198 q 449 372 483 327 q 339 422 410 422 l 248 422 z "},"C":{"ha":773,"x_min":41,"x_max":747,"o":"m 483 917 q 747 821 601 917 l 678 712 q 593 766 597 764 q 494 791 545 789 q 304 665 381 791 q 229 442 241 564 q 227 395 227 419 q 282 207 227 281 q 419 133 338 133 q 514 151 468 133 q 627 205 549 163 l 681 96 q 528 15 582 37 q 380 -11 458 -11 q 119 110 209 -11 q 41 387 41 217 q 156 747 41 594 q 483 917 282 917 z "},"D":{"ha":784,"x_min":41,"x_max":745,"o":"m 41 3 l 134 892 q 361 899 245 898 q 745 532 745 899 q 741 449 745 491 q 598 119 720 236 q 262 -3 473 -3 q 163 0 228 -3 q 41 3 98 3 m 361 791 q 330 791 351 791 q 293 789 308 789 l 222 121 l 298 121 q 483 222 406 121 q 566 435 552 313 q 570 519 570 480 q 361 791 570 791 z "},"E":{"ha":642,"x_min":41,"x_max":633,"o":"m 258 543 l 574 543 l 562 419 l 245 420 l 216 123 l 548 123 l 534 0 l 41 0 l 134 888 l 633 888 l 621 770 l 283 770 l 258 543 z "},"F":{"ha":643,"x_min":41,"x_max":635,"o":"m 258 543 l 576 543 l 564 419 l 245 419 l 201 0 l 41 0 l 134 888 l 635 888 l 623 770 l 283 770 l 258 543 z "},"G":{"ha":807,"x_min":39,"x_max":746,"o":"m 370 -8 q 118 114 206 -8 q 39 388 39 222 q 43 449 39 419 q 161 754 58 617 q 464 917 285 917 q 605 892 528 917 q 746 819 696 863 l 678 713 q 480 791 575 789 q 301 663 377 791 q 227 442 239 559 q 224 388 224 415 q 270 201 224 275 q 391 127 316 127 q 524 151 475 127 l 553 422 l 370 422 l 384 543 l 731 543 l 682 91 q 530 16 586 35 q 370 -8 460 -8 z "},"H":{"ha":807,"x_min":41,"x_max":768,"o":"m 555 419 l 250 419 l 206 0 l 41 0 l 134 888 l 300 888 l 263 543 l 567 543 l 604 888 l 768 888 l 674 0 l 510 0 l 555 419 z "},"I":{"ha":339,"x_min":41,"x_max":300,"o":"m 134 890 l 300 890 l 206 0 l 41 0 l 134 890 z "},"J":{"ha":342,"x_min":-256,"x_max":315,"o":"m -42 -259 q -168 -232 -118 -259 q -256 -155 -198 -214 l -163 -50 q -111 -106 -132 -91 q -39 -126 -81 -126 q 65 83 42 -126 l 149 888 l 315 888 l 232 94 q -42 -259 195 -259 z "},"K":{"ha":753,"x_min":41,"x_max":720,"o":"m 290 354 l 235 286 l 206 0 l 41 0 l 133 890 l 298 890 l 256 487 l 583 935 l 720 861 q 391 458 593 708 q 536 235 433 376 q 707 11 620 122 l 507 -33 q 290 354 391 155 z "},"L":{"ha":696,"x_min":41,"x_max":574,"o":"m 134 890 l 297 890 l 216 118 l 574 118 l 562 0 l 41 0 l 134 890 z "},"M":{"ha":1101,"x_min":54,"x_max":1046,"o":"m 831 593 l 559 -1 l 414 -1 l 266 598 l 201 0 l 54 0 l 149 891 l 359 891 l 532 236 l 849 891 l 1046 891 l 951 0 l 769 0 l 831 593 z "},"N":{"ha":807,"x_min":42,"x_max":768,"o":"m 244 557 l 184 0 l 42 0 l 136 894 l 270 894 l 568 332 l 627 888 l 768 888 l 678 20 l 540 -20 q 244 557 430 229 z "},"O":{"ha":894,"x_min":42,"x_max":856,"o":"m 46 448 q 194 770 65 642 q 502 898 323 898 q 760 789 663 898 q 856 509 856 681 q 853 448 856 479 q 696 99 830 227 q 395 -22 572 -22 q 141 79 236 -22 q 42 370 41 184 q 46 448 42 408 m 216 384 q 267 186 216 266 q 408 103 321 103 q 612 240 530 103 q 681 488 681 357 q 631 690 681 610 q 486 774 576 774 q 282 636 361 774 q 216 384 216 518 z "},"P":{"ha":659,"x_min":41,"x_max":642,"o":"m 239 359 l 201 0 l 41 0 l 134 890 l 396 894 q 572 828 502 895 q 642 656 642 761 q 534 445 642 536 q 309 357 433 357 q 239 359 294 357 m 285 791 l 250 454 l 294 454 q 418 505 363 454 q 479 623 472 556 q 480 651 480 637 q 346 793 480 780 q 315 793 336 795 q 285 791 294 791 z "},"Q":{"ha":913,"x_min":45,"x_max":887,"o":"m 609 57 q 400 -26 492 -26 q 143 79 241 -26 q 45 370 45 183 q 49 446 45 407 q 199 770 69 642 q 507 898 328 898 q 767 791 670 898 q 864 513 864 684 q 727 170 864 289 l 887 8 l 770 -109 l 609 57 m 220 384 q 270 184 220 266 q 410 100 324 100 q 522 140 468 100 l 425 228 l 545 343 l 633 256 q 684 438 670 307 q 686 494 686 465 q 637 690 686 613 q 491 773 583 773 q 288 636 366 773 q 220 384 220 518 z "},"R":{"ha":724,"x_min":42,"x_max":708,"o":"m 271 365 l 240 365 l 203 0 l 42 0 l 134 890 q 279 892 174 890 q 403 894 354 894 q 637 680 637 892 q 635 636 637 659 q 562 469 624 540 q 429 384 506 407 q 708 22 522 231 l 502 -15 q 373 167 435 61 q 271 365 346 216 m 286 791 l 251 463 l 308 463 q 479 637 461 463 q 467 736 484 696 q 361 793 439 796 l 286 791 z "},"S":{"ha":629,"x_min":-3,"x_max":616,"o":"m -3 114 l 83 221 q 264 123 156 123 q 423 266 408 123 q 343 375 430 336 q 172 452 256 414 q 79 632 79 513 q 81 675 79 652 q 191 861 94 789 q 363 922 273 922 q 616 823 507 922 l 547 707 q 378 796 463 796 q 293 773 321 796 q 248 674 255 746 q 328 574 241 612 q 495 499 481 507 q 586 309 587 435 q 583 269 586 290 q 467 50 568 126 q 262 -14 381 -14 q -3 114 73 -14 z "},"T":{"ha":743,"x_min":77,"x_max":747,"o":"m 414 0 l 248 0 l 331 774 l 77 774 l 91 887 l 747 887 l 735 774 l 496 774 l 414 0 z "},"U":{"ha":848,"x_min":73,"x_max":810,"o":"m 365 -23 q 167 46 245 -23 q 73 274 73 126 q 76 327 73 300 l 136 888 l 301 888 l 241 327 q 240 292 240 309 q 293 142 240 197 q 396 99 339 98 q 510 153 457 99 q 585 327 574 217 l 644 888 l 810 888 l 750 327 q 605 57 732 153 q 365 -23 499 -23 z "},"V":{"ha":753,"x_min":56,"x_max":787,"o":"m 267 -14 l 56 869 l 232 913 l 378 259 l 647 914 l 787 868 l 388 -14 l 267 -14 z "},"W":{"ha":1095,"x_min":60,"x_max":1131,"o":"m 688 -8 l 576 551 l 339 -8 l 217 -8 l 60 864 l 247 901 l 339 289 l 555 883 l 697 883 l 788 290 l 996 902 l 1131 863 l 796 -8 l 688 -8 z "},"X":{"ha":766,"x_min":-8,"x_max":753,"o":"m 370 339 l 140 -42 l -8 14 l 298 441 l 96 863 l 263 920 l 407 566 l 629 922 l 753 861 l 465 457 l 715 14 l 536 -35 l 370 339 z "},"Y":{"ha":699,"x_min":58,"x_max":726,"o":"m 384 0 l 220 0 l 258 377 l 58 863 l 233 909 l 372 515 l 601 909 l 726 863 l 422 377 l 384 0 z "},"Z":{"ha":755,"x_min":12,"x_max":720,"o":"m 632 137 l 617 0 l 38 0 l 12 103 l 509 764 l 127 761 l 141 887 l 701 887 l 720 770 l 237 137 l 632 137 z "},"[":{"ha":312,"x_min":38,"x_max":380,"o":"m 163 1028 l 380 1028 l 366 907 l 286 907 l 189 -12 l 279 -12 l 264 -159 l 38 -159 l 163 1028 z "},"\\":{"ha":534,"x_min":69,"x_max":486,"o":"m 69 948 l 224 982 l 486 -208 l 332 -240 l 69 948 z "},"]":{"ha":369,"x_min":7,"x_max":354,"o":"m 22 -12 l 113 -12 l 210 907 l 130 907 l 142 1028 l 354 1028 l 229 -159 l 7 -159 l 22 -12 z "},"^":{"ha":743,"x_min":138,"x_max":593,"o":"m 212 616 l 138 715 l 389 952 l 593 715 l 499 616 l 370 780 l 212 616 z "},"_":{"ha":743,"x_min":3,"x_max":741,"o":"m 11 -69 l 741 -69 l 732 -152 l 3 -152 l 11 -69 z "},"`":{"ha":456,"x_min":65,"x_max":449,"o":"m 449 869 l 163 993 l 65 884 l 351 769 l 449 869 z "},"a":{"ha":681,"x_min":39,"x_max":633,"o":"m 411 309 q 308 298 369 309 q 218 273 241 288 q 175 190 182 252 q 193 121 171 151 q 248 92 216 92 q 395 159 331 92 l 411 309 m 401 75 q 313 8 338 23 q 218 -22 263 -23 q 91 26 142 -22 q 39 160 39 75 q 41 189 39 174 q 125 353 53 304 q 300 407 171 382 q 419 425 365 419 l 427 498 q 408 555 430 529 q 353 582 387 582 q 137 487 227 582 l 85 572 q 221 675 130 635 q 366 711 300 712 q 526 647 465 711 q 576 484 586 583 l 538 136 q 548 117 538 127 q 568 106 557 106 q 628 119 613 106 l 633 31 q 494 -15 543 -15 q 442 9 472 -15 q 401 75 407 38 z "},"b":{"ha":715,"x_min":39,"x_max":658,"o":"m 183 64 l 165 -1 l 39 -1 l 140 972 l 290 972 l 251 602 q 350 686 283 650 q 456 719 412 720 q 610 633 555 719 q 658 445 659 557 q 655 396 658 420 q 340 -14 610 -14 q 183 64 292 -14 m 237 465 l 208 178 q 267 132 227 153 q 342 111 308 111 q 458 205 420 111 q 494 377 480 260 q 498 438 498 410 q 393 595 498 597 q 237 465 315 595 z "},"c":{"ha":665,"x_min":52,"x_max":623,"o":"m 53 336 q 191 624 72 522 q 419 709 292 712 q 623 621 499 709 l 567 525 q 396 598 484 598 q 255 481 308 598 q 213 286 212 387 q 251 146 213 198 q 353 94 289 94 q 543 182 434 94 l 595 100 q 342 -16 483 -16 q 104 100 178 -16 q 52 298 52 182 q 53 336 52 320 z "},"d":{"ha":709,"x_min":35,"x_max":674,"o":"m 445 -1 l 441 68 q 350 15 396 42 q 256 -18 289 -19 q 84 76 144 -18 q 35 285 34 157 q 102 557 35 422 q 302 719 182 720 q 410 703 373 719 q 490 642 429 693 l 524 968 l 674 968 l 572 -1 l 445 -1 m 342 595 q 203 359 228 595 q 199 292 201 324 q 302 104 199 104 q 441 176 345 104 l 472 475 q 420 555 433 540 q 342 595 387 595 z "},"e":{"ha":681,"x_min":52,"x_max":642,"o":"m 355 95 q 545 182 446 94 l 598 98 q 466 6 519 28 q 335 -16 412 -16 q 102 103 172 -16 q 52 302 52 184 q 54 343 52 324 q 164 601 71 500 q 415 708 264 708 q 574 648 511 708 q 642 473 642 583 q 640 435 642 454 l 629 331 l 218 331 q 216 271 216 297 q 355 95 216 96 m 490 449 q 494 487 492 469 q 395 600 494 600 q 307 564 349 600 q 240 449 260 522 l 490 449 z "},"f":{"ha":449,"x_min":31,"x_max":534,"o":"m 366 913 q 300 825 317 914 q 286 692 300 825 l 458 692 l 446 567 l 274 567 l 214 0 l 68 0 l 127 567 l 31 567 l 43 692 l 140 692 l 149 765 q 378 1036 176 1036 q 473 1017 442 1036 q 534 959 479 1013 l 458 865 q 366 913 410 911 z "},"g":{"ha":709,"x_min":20,"x_max":764,"o":"m 621 449 q 529 264 610 338 q 336 190 448 190 q 259 203 300 190 q 209 144 235 182 q 267 94 205 100 q 366 92 277 92 q 543 79 505 92 q 625 -49 624 53 q 624 -83 625 -65 q 461 -278 610 -206 q 235 -332 347 -332 q 71 -288 130 -332 q 20 -163 12 -243 q 160 -8 27 -88 q 75 24 106 -8 q 52 95 47 54 q 109 168 54 122 q 183 236 178 229 q 96 445 81 321 q 191 624 106 548 q 388 700 275 700 q 574 620 518 700 l 764 701 l 747 544 l 610 544 q 621 449 624 476 m 247 445 q 266 347 241 392 q 347 296 296 296 q 435 342 397 296 q 479 452 472 389 q 454 547 484 499 q 373 594 423 594 q 285 543 321 594 q 247 445 252 499 m 241 -22 q 202 -61 228 -26 q 172 -129 176 -96 q 171 -155 171 -142 q 279 -232 171 -232 q 411 -184 347 -232 q 479 -88 475 -137 q 456 -33 484 -46 q 372 -22 435 -23 l 241 -22 z "},"h":{"ha":711,"x_min":37,"x_max":624,"o":"m 472 453 q 473 487 473 471 q 408 583 473 583 q 285 518 346 583 q 232 444 235 465 l 184 0 l 37 0 l 138 967 l 288 967 l 244 564 q 429 709 338 711 q 562 652 503 709 q 624 499 624 591 q 623 471 624 486 l 572 0 l 423 0 l 472 453 z "},"i":{"ha":323,"x_min":35,"x_max":307,"o":"m 103 913 q 140 987 107 958 q 216 1016 174 1016 q 284 987 258 1016 q 307 913 311 958 q 269 838 301 868 q 194 808 236 808 q 125 838 152 808 q 103 913 98 868 m 107 688 l 255 688 l 183 0 l 35 0 l 107 688 z "},"j":{"ha":323,"x_min":-99,"x_max":328,"o":"m 328 914 q 290 840 324 869 q 216 811 256 811 q 145 840 172 811 q 122 914 118 869 q 161 988 127 959 q 236 1017 194 1017 q 306 988 278 1017 q 328 914 334 959 m 103 -237 q -58 -309 50 -273 l -99 -183 q 41 -90 22 -148 q 49 -18 42 -83 l 122 688 l 273 688 l 191 -76 q 103 -237 180 -186 z "},"k":{"ha":661,"x_min":39,"x_max":635,"o":"m 262 308 l 214 247 l 187 -1 l 39 -1 l 140 968 l 289 968 l 229 401 l 513 745 l 635 654 l 350 382 l 616 43 l 473 -43 l 262 308 z "},"l":{"ha":324,"x_min":38,"x_max":288,"o":"m 140 970 l 288 970 l 184 0 l 38 0 l 140 970 z "},"m":{"ha":1077,"x_min":50,"x_max":1002,"o":"m 848 471 q 849 500 849 486 q 784 583 849 583 q 694 536 750 583 q 621 412 628 479 l 578 0 l 422 0 l 469 450 q 453 540 475 502 q 401 578 431 578 q 303 519 359 578 q 243 425 247 461 l 198 0 l 50 0 l 122 689 l 271 689 l 258 566 q 452 704 361 704 q 547 664 502 704 q 609 572 593 624 q 819 711 728 711 q 967 635 914 711 q 1002 477 1013 567 l 952 0 l 798 0 l 848 471 z "},"n":{"ha":711,"x_min":50,"x_max":636,"o":"m 484 445 q 486 477 486 463 q 419 585 486 585 q 308 526 369 585 q 243 420 247 467 l 198 0 l 50 0 l 122 689 l 271 689 l 258 566 q 445 709 357 709 q 581 650 525 709 q 636 494 636 590 q 635 461 636 479 l 586 0 l 438 0 l 484 445 z "},"o":{"ha":758,"x_min":52,"x_max":707,"o":"m 54 350 q 195 628 73 528 q 420 711 297 711 q 614 640 533 711 q 707 404 708 556 q 704 350 707 378 q 618 126 692 228 q 345 -15 517 -15 q 104 96 178 -15 q 52 298 52 176 q 54 350 52 326 m 213 298 q 245 156 213 210 q 350 94 282 94 q 500 201 445 94 q 545 396 547 290 q 515 538 545 484 q 415 601 479 601 q 259 495 316 601 q 213 298 213 406 z "},"p":{"ha":718,"x_min":37,"x_max":686,"o":"m 217 39 l 184 -274 l 37 -274 l 137 689 l 286 689 l 274 575 q 358 671 297 629 q 476 712 419 712 q 686 439 686 711 q 682 362 686 403 q 351 -33 640 -33 q 217 39 311 -31 m 258 430 l 229 159 q 366 95 308 95 q 473 180 430 95 q 518 345 510 250 q 524 426 524 393 q 415 585 524 585 q 327 525 381 585 q 258 430 275 472 z "},"q":{"ha":709,"x_min":61,"x_max":669,"o":"m 513 625 l 519 689 l 669 689 l 567 -274 l 418 -274 l 453 60 q 269 -33 313 -33 q 111 57 167 -33 q 61 274 61 137 q 65 350 61 312 q 144 578 77 469 q 327 705 222 705 q 431 685 391 705 q 513 625 458 673 m 380 586 q 251 473 294 585 q 221 288 220 395 q 248 149 221 203 q 326 91 278 91 q 391 129 346 91 q 467 191 461 187 l 496 473 q 452 549 488 511 q 380 586 416 586 z "},"r":{"ha":469,"x_min":50,"x_max":477,"o":"m 366 533 q 283 490 326 532 q 244 433 247 453 l 198 0 l 50 0 l 123 689 l 273 689 l 259 576 q 317 658 281 620 q 393 703 359 703 q 477 689 445 703 l 444 517 q 407 533 420 530 q 366 533 401 534 z "},"s":{"ha":606,"x_min":38,"x_max":555,"o":"m 38 92 l 126 195 q 278 99 189 98 q 353 124 323 99 q 387 187 382 149 q 240 302 393 256 q 130 359 164 324 q 96 484 88 406 q 187 659 109 597 q 349 713 256 713 l 351 713 q 555 639 444 713 l 488 536 q 349 593 415 593 q 277 569 304 593 q 247 515 250 545 q 273 465 243 477 q 362 431 319 446 q 541 229 555 372 q 444 41 529 109 q 259 -19 368 -19 q 38 92 110 -19 z "},"t":{"ha":487,"x_min":46,"x_max":452,"o":"m 106 214 l 142 570 l 46 570 l 58 684 l 156 684 l 171 829 l 328 829 l 312 684 l 452 684 l 439 568 l 300 570 l 262 198 q 302 110 252 109 q 359 115 346 110 q 410 141 384 127 l 433 46 q 334 0 358 7 q 221 -11 296 -11 q 103 160 103 -11 q 106 214 103 184 z "},"u":{"ha":709,"x_min":75,"x_max":656,"o":"m 450 0 q 446 99 449 38 q 262 -24 338 -24 q 130 35 184 -24 q 75 194 75 95 q 76 231 75 212 l 125 688 l 274 688 l 227 235 q 224 197 224 214 q 285 104 224 103 q 400 168 335 104 q 464 263 460 227 l 509 688 l 656 688 l 585 0 l 450 0 z "},"v":{"ha":644,"x_min":56,"x_max":655,"o":"m 235 -16 l 56 658 l 210 701 l 309 168 l 514 701 l 655 658 l 340 -16 l 235 -16 z "},"w":{"ha":1020,"x_min":64,"x_max":1032,"o":"m 628 -12 l 522 426 l 323 -12 l 201 -12 l 64 659 l 221 699 l 294 165 l 488 685 l 620 685 l 711 167 l 887 699 l 1032 659 l 746 -12 l 628 -12 z "},"x":{"ha":677,"x_min":-22,"x_max":681,"o":"m 330 254 l 98 -43 l -22 45 l 245 342 l 64 631 l 213 713 l 357 441 l 566 712 l 681 642 l 429 349 l 639 43 l 500 -46 l 330 254 z "},"y":{"ha":666,"x_min":-23,"x_max":692,"o":"m 107 -273 q -23 -239 68 -273 l 35 -107 q 129 -134 84 -134 q 267 45 199 -136 l 79 656 l 241 699 l 351 190 l 556 696 l 692 661 l 335 -109 q 250 -218 302 -174 q 107 -273 184 -273 z "},"z":{"ha":669,"x_min":38,"x_max":629,"o":"m 49 107 l 370 494 q 433 567 385 514 l 110 567 l 122 686 l 629 686 l 618 575 l 317 212 q 251 127 296 182 l 587 127 l 574 0 l 38 0 l 49 107 z "},"{":{"ha":743,"x_min":155,"x_max":651,"o":"m 521 1006 q 460 979 476 1006 q 433 853 445 952 q 426 757 429 818 q 422 677 423 696 q 298 471 411 572 l 297 461 q 387 236 387 370 q 385 203 387 220 q 369 94 382 172 q 351 -14 355 15 q 347 -104 345 -90 q 378 -125 351 -125 q 479 -91 438 -125 l 503 -255 q 358 -274 435 -277 q 193 -56 193 -264 q 203 84 193 -9 q 214 159 205 103 q 225 245 222 214 q 155 430 236 350 l 164 507 q 233 583 220 566 q 271 681 266 628 q 278 775 275 715 q 283 863 281 836 q 533 1158 315 1158 q 651 1138 570 1158 l 606 982 q 521 1006 538 1006 z "},"|":{"ha":317,"x_min":23,"x_max":335,"o":"m 157 952 l 335 952 l 201 -305 l 23 -305 l 157 952 z "},"}":{"ha":743,"x_min":104,"x_max":604,"o":"m 475 84 q 426 -149 457 -80 q 245 -274 373 -267 q 104 -255 167 -278 l 163 -91 q 256 -125 198 -126 q 288 -113 279 -125 q 300 -68 296 -102 q 305 -14 300 -68 q 313 94 309 16 q 320 203 316 172 q 373 358 328 282 q 460 461 411 420 l 461 471 q 382 677 370 572 q 400 806 384 696 q 412 935 412 883 q 399 993 412 979 q 353 1006 387 1006 q 262 982 335 1006 l 250 1138 q 370 1158 334 1158 q 563 928 562 1158 q 560 863 563 897 q 547 775 557 837 q 533 681 537 713 q 551 583 528 628 q 604 507 560 566 l 597 430 q 487 245 498 350 q 480 158 484 213 q 475 84 476 103 z "},"~":{"ha":548,"x_min":115,"x_max":490,"o":"m 286 560 q 240 583 254 583 q 203 566 222 583 q 141 500 191 555 l 115 629 q 254 690 183 690 q 342 665 300 690 q 391 640 384 640 q 437 669 406 639 q 468 700 452 685 l 490 579 q 368 526 422 526 q 286 560 332 526 z "}," ":{"ha":378,"x_min":0,"x_max":0,"o":""},"¡":{"ha":326,"x_min":5,"x_max":315,"o":"m 267 696 l 178 -142 l 5 -142 l 95 696 l 267 696 m 315 902 q 276 825 311 857 q 195 793 241 793 q 124 825 152 793 q 100 902 96 857 q 140 977 106 947 q 220 1008 175 1008 q 292 977 264 1008 q 315 902 320 947 z "},"¢":{"ha":665,"x_min":49,"x_max":636,"o":"m 52 336 q 151 590 68 494 q 327 701 220 674 l 339 819 l 503 819 l 490 703 q 636 621 560 686 l 557 515 q 473 583 492 572 q 400 605 439 605 q 258 486 316 605 q 212 290 210 387 q 250 148 212 202 q 343 94 289 94 q 429 119 385 94 q 526 194 461 137 l 597 96 q 415 -14 506 12 l 403 -123 l 239 -123 l 251 -15 q 85 114 136 11 q 49 289 47 187 q 52 336 49 315 z "},"£":{"ha":661,"x_min":45,"x_max":623,"o":"m 363 37 q 52 -24 298 37 l 45 114 q 96 126 69 119 q 142 149 129 134 q 187 248 180 184 q 191 407 197 336 l 99 407 l 113 536 l 187 536 q 186 648 182 610 q 263 831 197 760 q 446 911 334 910 q 623 854 530 911 l 551 742 q 441 789 460 789 q 363 744 397 789 q 324 643 330 699 q 330 536 323 623 l 505 536 l 490 407 l 343 407 q 335 273 343 347 q 279 159 328 209 q 397 165 332 165 q 586 136 481 165 l 540 -16 q 444 18 522 -11 q 363 37 395 37 z "},"¥":{"ha":736,"x_min":76,"x_max":727,"o":"m 263 399 l 76 890 l 248 890 l 368 578 l 555 890 l 727 890 l 437 399 l 541 399 l 530 283 l 420 283 l 414 216 l 524 216 l 511 100 l 401 100 l 391 3 l 225 3 l 236 100 l 122 100 l 134 216 l 248 216 l 255 283 l 141 283 l 153 399 l 263 399 z "},"Š":{"ha":682,"x_min":-3,"x_max":647,"o":"m -3 114 l 83 221 q 264 123 156 123 q 423 266 408 123 q 343 375 430 336 q 172 452 256 414 q 79 632 79 513 q 81 675 79 652 q 191 861 94 789 q 363 922 273 922 q 616 823 507 922 l 547 707 q 378 796 463 796 q 293 773 321 796 q 248 674 255 746 q 328 574 241 612 q 495 499 481 507 q 586 309 587 435 q 583 269 586 290 q 467 50 568 126 q 262 -14 381 -14 q -3 114 73 -14 m 658 1215 l 643 1080 l 437 933 l 254 1080 l 269 1214 l 452 1093 l 658 1215 z "},"§":{"ha":544,"x_min":39,"x_max":463,"o":"m 39 -33 l 118 77 q 237 4 174 4 q 279 22 260 4 q 298 53 297 39 q 282 85 301 76 q 243 99 278 88 q 174 121 218 104 q 96 254 85 156 q 149 370 104 323 q 119 472 113 408 q 189 606 127 557 q 308 647 241 648 q 463 586 376 646 l 404 473 q 293 529 328 529 q 254 520 263 529 q 241 480 245 511 q 331 445 240 465 q 449 288 460 401 q 400 171 441 216 q 425 69 433 133 q 353 -75 416 -24 q 218 -121 296 -121 q 39 -33 117 -122 m 220 263 q 264 239 218 254 l 292 231 q 323 271 319 248 q 304 304 324 293 q 258 320 297 308 q 220 263 225 315 z "},"š":{"ha":606,"x_min":37,"x_max":568,"o":"m 38 92 l 126 195 q 278 99 189 98 q 353 124 323 99 q 387 187 382 149 q 240 302 393 256 q 130 359 164 324 q 96 484 88 406 q 187 659 109 597 q 349 713 256 713 l 351 713 q 555 639 444 713 l 488 536 q 349 593 415 593 q 277 569 304 593 q 247 515 250 545 q 273 465 243 477 q 362 431 319 446 q 541 229 555 372 q 444 41 529 109 q 259 -19 368 -19 q 38 92 110 -19 m 578 1006 l 563 871 l 357 724 l 174 871 l 189 1005 l 372 884 l 578 1006 z "},"©":{"ha":1105,"x_min":94,"x_max":1012,"o":"m 551 141 q 361 235 430 141 q 301 442 301 316 q 362 642 301 560 q 553 736 431 735 q 720 688 636 736 l 688 617 q 557 667 606 667 q 419 582 468 667 q 382 430 381 515 q 431 274 382 335 q 551 213 479 213 q 692 251 624 213 l 727 193 q 551 141 629 141 m 183 439 q 292 178 183 286 q 553 69 400 69 q 814 178 707 69 q 922 439 922 286 q 814 701 922 593 q 553 808 705 808 q 292 701 400 808 q 183 439 183 593 m 94 439 q 228 764 94 629 q 553 899 362 899 q 878 764 743 899 q 1012 439 1012 629 q 878 115 1012 250 q 553 -20 743 -20 q 229 115 363 -20 q 94 439 94 250 z "},"«":{"ha":541,"x_min":-1,"x_max":582,"o":"m 582 175 l 433 170 l 217 401 l 433 627 l 582 621 l 400 397 l 582 175 m 362 175 l 214 170 l -1 401 l 214 627 l 362 621 l 182 397 l 362 175 z "},"¬":{"ha":850,"x_min":122,"x_max":774,"o":"m 616 312 l 122 312 l 122 476 l 774 476 l 774 39 l 616 39 l 616 312 z "},"­":{"ha":690,"x_min":72,"x_max":620,"o":"m 72 483 l 620 483 l 620 396 l 72 396 l 72 483 z "},"®":{"ha":1105,"x_min":94,"x_max":1012,"o":"m 184 439 l 183 439 q 292 178 183 286 q 553 69 400 69 q 814 178 707 69 q 922 439 922 286 q 814 701 922 593 q 553 808 705 808 q 292 701 400 808 q 184 439 184 593 m 94 439 q 228 764 94 629 q 553 899 362 899 q 878 764 743 899 q 1012 439 1012 629 q 878 115 1012 250 q 553 -20 743 -20 q 229 115 363 -20 q 94 439 94 250 m 682 151 q 576 281 635 198 q 488 416 538 335 l 449 415 l 449 159 l 369 159 l 369 728 q 548 731 503 731 q 703 574 704 730 q 567 422 701 448 q 662 293 614 357 q 780 168 696 250 l 682 151 m 526 677 l 449 675 l 449 475 l 507 475 q 606 503 578 475 q 631 583 629 528 q 526 677 631 678 z "},"¯":{"ha":563,"x_min":141,"x_max":475,"o":"m 151 916 l 475 916 l 467 825 l 141 825 l 151 916 z "},"°":{"ha":378,"x_min":-7,"x_max":387,"o":"m 387 808 q 316 671 378 728 q 171 614 254 614 q 37 671 88 614 q -7 808 -15 728 q 64 945 1 888 q 213 1002 127 1002 q 345 945 296 1002 q 387 808 395 888 m 95 808 q 115 739 91 766 q 182 711 138 711 q 252 739 222 711 q 285 808 281 766 q 266 878 289 850 q 201 906 243 906 q 129 878 159 906 q 95 808 99 850 z "},"±":{"ha":696,"x_min":72,"x_max":620,"o":"m 410 123 l 281 123 l 281 361 l 72 361 l 72 494 l 281 494 l 281 718 l 410 718 l 410 494 l 620 494 l 620 361 l 410 361 l 410 123 m 91 68 l 613 68 l 613 -53 l 91 -53 l 91 68 z "},"Ž":{"ha":755,"x_min":45,"x_max":709,"o":"m 623 137 l 609 0 l 45 0 l 45 119 l 499 764 l 133 761 l 148 887 l 692 887 l 694 774 l 241 137 l 623 137 m 709 1202 l 696 1065 l 490 918 l 307 1065 l 321 1200 l 506 1080 l 709 1202 z "},"µ":{"ha":705,"x_min":45,"x_max":696,"o":"m 465 41 l 452 26 q 313 -45 380 -45 q 216 -14 259 -45 l 187 -273 l 45 -273 l 144 675 l 288 675 l 237 199 q 350 99 227 98 q 428 137 389 99 q 469 208 467 175 l 519 677 l 673 677 l 618 163 q 643 43 608 68 q 696 -9 667 26 l 570 -100 q 465 41 484 -47 z "},"¶":{"ha":704,"x_min":69,"x_max":606,"o":"m 469 0 l 469 891 l 606 891 l 606 0 l 469 0 m 293 0 l 293 441 q 69 671 68 441 q 126 844 69 791 q 290 891 179 892 l 430 891 l 430 0 l 293 0 z "},"·":{"ha":327,"x_min":57,"x_max":297,"o":"m 57 574 q 102 670 62 629 q 191 711 141 711 q 273 671 243 711 q 297 574 302 631 q 253 477 292 518 q 164 437 214 437 q 82 477 113 437 q 57 574 52 518 z "},"ž":{"ha":669,"x_min":27,"x_max":670,"o":"m 39 107 l 361 494 q 423 567 376 514 l 100 567 l 113 686 l 620 686 l 606 575 l 308 212 q 241 127 286 182 l 578 127 l 564 0 l 27 0 l 39 107 m 670 1006 l 655 871 l 450 724 l 267 871 l 281 1005 l 465 884 l 670 1006 z "},"»":{"ha":545,"x_min":-23,"x_max":562,"o":"m 195 175 l 380 397 l 195 621 l 347 627 l 562 401 l 347 170 l 195 175 m -23 175 l 160 397 l -22 621 l 127 627 l 342 401 l 127 170 l -23 175 z "},"Œ":{"ha":1427,"x_min":56,"x_max":1385,"o":"m 788 218 q 418 -4 631 -4 q 159 102 256 -4 q 56 397 56 209 q 60 472 56 434 q 210 789 80 666 q 524 913 339 913 q 838 708 731 913 l 859 887 l 1385 887 l 1370 742 l 971 742 l 949 541 l 1336 541 l 1321 404 l 935 404 l 909 149 l 1308 149 l 1291 0 l 765 0 l 788 218 m 222 415 q 282 216 222 297 q 433 136 342 136 q 644 263 557 136 q 722 506 722 376 q 663 699 722 624 q 507 774 605 774 q 296 655 380 774 q 222 415 222 548 z "},"œ":{"ha":1434,"x_min":121,"x_max":1294,"o":"m 288 301 q 323 164 288 217 q 433 106 362 106 q 586 205 530 106 q 633 392 633 286 q 600 529 633 477 q 496 587 563 587 q 336 490 395 587 q 288 301 288 410 m 996 95 q 1181 206 1093 95 l 1257 95 q 974 -16 1126 -16 q 800 35 863 -16 q 727 152 755 73 q 426 -15 620 -15 q 176 98 252 -15 q 121 301 121 178 q 123 350 121 326 q 270 628 142 528 q 505 711 376 711 q 656 671 586 711 q 774 541 736 627 q 1069 704 880 704 q 1229 647 1168 704 q 1294 475 1294 585 q 1293 435 1294 456 l 1282 331 l 872 331 q 868 270 868 285 q 996 95 868 95 m 1150 449 q 1131 545 1153 505 q 1048 595 1105 595 q 903 449 928 595 l 1150 449 z "},"Ÿ":{"ha":669,"x_min":66,"x_max":705,"o":"m 378 0 l 213 0 l 252 377 l 66 863 l 224 909 l 354 521 l 563 909 l 705 863 l 418 377 l 378 0 m 475 1053 q 505 1118 479 1090 q 583 1153 536 1153 q 652 1118 628 1153 q 670 1053 673 1088 q 639 986 666 1015 q 562 952 606 952 q 490 986 514 952 q 475 1053 471 1013 m 183 1053 q 213 1118 187 1090 q 292 1153 244 1153 q 361 1118 338 1153 q 378 1053 381 1088 q 347 986 374 1015 q 270 952 316 952 q 199 986 224 952 q 183 1053 179 1013 z "},"¿":{"ha":637,"x_min":16,"x_max":540,"o":"m 237 463 q 266 680 263 541 l 414 680 q 415 627 415 654 q 274 240 415 359 q 208 184 209 184 q 165 111 170 146 q 186 33 160 61 q 254 5 212 5 q 415 152 354 5 l 540 81 q 415 -88 481 -35 q 244 -142 343 -144 q 64 -60 127 -142 q 16 113 7 15 q 146 335 31 254 q 237 463 208 380 m 457 845 q 420 772 452 802 q 349 742 389 742 q 281 772 308 742 q 262 845 255 802 q 298 916 266 887 q 369 945 330 945 q 436 917 411 945 q 457 845 461 888 z "},"À":{"ha":804,"x_min":-19,"x_max":703,"o":"m 487 233 l 236 233 l 134 -16 l -19 3 l 362 909 l 505 909 l 703 9 l 538 -16 l 487 233 m 288 362 l 464 362 l 408 671 l 288 362 m 547 952 l 270 1078 l 345 1168 l 623 1035 l 547 952 z "},"Á":{"ha":788,"x_min":-19,"x_max":703,"o":"m 487 233 l 236 233 l 134 -16 l -19 3 l 362 909 l 505 909 l 703 9 l 538 -16 l 487 233 m 288 362 l 464 362 l 410 671 l 288 362 m 251 1036 l 564 1160 l 637 1051 l 330 936 l 251 1036 z "},"Â":{"ha":788,"x_min":-22,"x_max":701,"o":"m 486 233 l 235 233 l 133 -16 l -22 3 l 361 909 l 503 909 l 701 9 l 537 -16 l 486 233 m 286 362 l 463 362 l 407 671 l 286 362 m 237 918 l 251 1054 l 457 1202 l 639 1054 l 625 920 l 442 1040 l 237 918 z "},"Ã":{"ha":804,"x_min":-19,"x_max":704,"o":"m 488 233 l 237 233 l 136 -16 l -19 3 l 363 909 l 506 909 l 704 9 l 540 -16 l 488 233 m 289 362 l 465 362 l 410 671 l 289 362 m 433 998 q 374 1031 385 1031 q 277 966 339 1031 l 235 1074 q 388 1146 296 1143 q 480 1110 431 1147 q 543 1073 529 1073 q 620 1115 562 1073 l 659 1009 q 595 972 635 987 q 534 958 556 958 q 433 998 492 956 z "},"Ä":{"ha":804,"x_min":-19,"x_max":704,"o":"m 488 233 l 237 233 l 136 -16 l -19 3 l 363 909 l 506 909 l 704 9 l 540 -16 l 488 233 m 288 362 l 464 362 l 410 671 l 288 362 m 505 1053 q 533 1118 507 1090 q 612 1153 564 1153 q 681 1118 658 1153 q 699 1053 701 1088 q 667 986 694 1015 q 590 952 636 952 q 519 986 543 952 q 505 1053 500 1013 m 213 1053 q 241 1118 216 1090 q 320 1153 273 1153 q 391 1118 366 1153 q 407 1053 410 1088 q 374 986 403 1015 q 298 952 343 952 q 228 986 251 952 q 213 1053 209 1013 z "},"Å":{"ha":804,"x_min":-20,"x_max":701,"o":"m 486 233 l 235 233 l 133 -16 l -20 3 l 361 909 l 503 909 l 701 9 l 537 -16 l 486 233 m 286 362 l 463 362 l 407 671 l 286 362 m 446 952 q 358 987 389 952 q 332 1074 327 1021 q 376 1160 338 1126 q 471 1194 415 1194 q 558 1159 526 1194 q 585 1074 590 1124 q 541 987 579 1021 q 446 952 502 952 m 464 1134 q 412 1074 418 1134 q 452 1012 406 1013 q 505 1074 498 1012 q 464 1134 510 1134 z "},"Æ":{"ha":1196,"x_min":-15,"x_max":1190,"o":"m 308 377 l 480 377 l 425 685 l 308 377 m 795 543 l 1127 543 l 1114 406 l 780 406 l 753 137 l 1105 137 l 1090 -1 l 556 -1 l 507 233 l 248 233 l 146 -16 l -15 3 l 378 909 l 522 909 l 613 430 l 661 890 l 1190 890 l 1175 757 l 818 757 l 795 543 z "},"Ç":{"ha":791,"x_min":64,"x_max":769,"o":"m 419 -304 q 305 -237 328 -304 l 361 -190 q 427 -235 396 -235 q 481 -187 476 -235 q 442 -133 487 -133 q 391 -155 423 -133 l 330 -125 l 349 -8 q 130 127 206 9 q 64 387 64 232 q 176 746 64 594 q 502 917 300 916 q 769 829 628 918 l 682 678 q 594 741 637 711 q 495 776 538 777 q 305 658 381 776 q 231 442 243 562 q 228 393 228 418 q 281 205 228 278 q 415 132 335 132 q 639 212 488 132 l 701 80 q 556 14 601 28 q 427 -11 496 -8 l 418 -65 q 453 -60 431 -60 q 543 -100 511 -60 q 566 -183 570 -136 q 524 -267 560 -232 q 419 -304 483 -304 z "},"È":{"ha":678,"x_min":34,"x_max":625,"o":"m 252 543 l 567 543 l 552 406 l 239 407 l 212 152 l 544 153 l 529 0 l 34 0 l 126 888 l 625 888 l 610 743 l 274 743 l 252 543 m 503 952 l 227 1078 l 300 1168 l 579 1035 l 503 952 z "},"É":{"ha":651,"x_min":34,"x_max":625,"o":"m 252 543 l 567 543 l 552 406 l 237 407 l 212 152 l 544 153 l 529 0 l 34 0 l 126 888 l 625 888 l 610 743 l 274 743 l 252 543 m 210 1050 l 519 1173 l 594 1065 l 285 949 l 210 1050 z "},"Ê":{"ha":678,"x_min":31,"x_max":623,"o":"m 250 543 l 564 543 l 551 406 l 236 407 l 209 152 l 543 153 l 526 0 l 31 0 l 123 888 l 623 888 l 606 743 l 271 743 l 250 543 m 210 945 l 222 1067 l 429 1215 l 612 1067 l 598 947 l 412 1054 l 210 945 z "},"Ë":{"ha":678,"x_min":34,"x_max":654,"o":"m 252 543 l 567 543 l 553 406 l 239 407 l 213 152 l 545 153 l 529 0 l 34 0 l 127 888 l 627 888 l 612 743 l 275 743 l 252 543 m 460 1053 q 490 1118 464 1089 q 568 1153 521 1153 q 637 1118 614 1153 q 654 1053 658 1088 q 624 986 650 1015 q 545 952 593 952 q 476 986 499 952 q 460 1053 456 1013 m 170 1053 q 198 1118 174 1090 q 278 1153 229 1153 q 346 1118 323 1153 q 362 1053 366 1088 q 332 986 358 1015 q 255 952 301 952 q 184 986 208 952 q 170 1053 165 1013 z "},"Ì":{"ha":298,"x_min":5,"x_max":389,"o":"m 99 891 l 278 891 l 184 0 l 5 0 l 99 891 m 313 952 l 37 1078 l 111 1168 l 389 1035 l 313 952 z "},"Í":{"ha":298,"x_min":5,"x_max":406,"o":"m 100 891 l 279 891 l 184 0 l 5 0 l 100 891 m 19 1036 l 331 1160 l 406 1051 l 96 936 l 19 1036 z "},"Î":{"ha":298,"x_min":-7,"x_max":395,"o":"m 88 891 l 267 891 l 174 0 l -5 0 l 88 891 m -7 945 l 5 1067 l 213 1215 l 395 1067 l 382 947 l 195 1054 l -7 945 z "},"Ï":{"ha":298,"x_min":-35,"x_max":450,"o":"m 100 891 l 279 891 l 186 0 l 7 0 l 100 891 m 255 1039 q 285 1104 258 1076 q 362 1139 316 1139 q 431 1104 408 1139 q 450 1039 452 1074 q 418 972 446 1001 q 342 939 387 939 q 271 972 294 939 q 255 1039 251 1000 m -35 1039 q -5 1104 -33 1077 q 72 1139 26 1139 q 141 1104 117 1139 q 159 1039 160 1074 q 127 972 155 1001 q 52 939 96 939 q -19 972 3 939 q -35 1039 -39 1000 z "},"Ð":{"ha":784,"x_min":-3,"x_max":745,"o":"m 340 490 l 326 349 l 237 349 l 217 149 l 305 149 q 487 236 415 149 q 564 435 551 315 q 570 521 570 483 q 363 762 570 762 q 326 762 353 762 q 282 761 298 761 l 252 490 l 340 490 m 85 490 l 129 892 q 343 899 241 898 q 646 813 547 899 q 745 536 745 727 q 741 449 745 494 q 598 119 720 236 q 256 -3 472 -3 q 157 0 221 -3 q 35 3 94 3 l 71 349 l -3 349 l 12 490 l 85 490 z "},"Ñ":{"ha":791,"x_min":38,"x_max":764,"o":"m 252 548 l 194 1 l 38 -1 l 132 894 l 266 894 l 553 359 l 609 888 l 764 888 l 674 20 l 551 -20 q 252 548 464 176 m 460 958 q 403 989 414 990 q 304 924 366 989 l 262 1032 q 415 1104 324 1101 q 507 1068 457 1105 q 571 1031 557 1031 q 646 1074 589 1031 l 686 968 q 620 929 663 947 q 562 916 582 916 q 460 958 521 916 z "},"Ò":{"ha":894,"x_min":35,"x_max":849,"o":"m 38 448 q 186 770 58 642 q 495 898 315 898 q 753 789 656 898 q 849 510 849 681 q 845 448 849 479 q 689 99 823 227 q 388 -22 564 -22 q 132 81 229 -22 q 35 370 35 184 q 38 448 35 408 m 194 391 q 252 195 194 274 q 401 117 311 117 q 612 240 526 117 q 688 480 688 351 q 629 680 688 600 q 476 761 571 761 q 269 633 353 761 q 194 391 194 521 m 606 952 l 330 1078 l 404 1168 l 682 1035 l 606 952 z "},"Ó":{"ha":894,"x_min":35,"x_max":849,"o":"m 39 448 q 187 770 60 642 q 495 898 315 898 q 753 789 658 898 q 849 510 849 681 q 846 448 849 479 q 690 99 823 227 q 388 -22 566 -22 q 134 79 229 -22 q 35 370 34 184 q 39 448 35 408 m 194 391 q 253 195 194 274 q 403 117 312 117 q 612 240 526 117 q 689 480 689 351 q 631 680 689 600 q 477 761 572 761 q 270 633 353 761 q 194 391 194 521 m 311 1036 l 624 1160 l 699 1051 l 389 936 l 311 1036 z "},"Ô":{"ha":894,"x_min":33,"x_max":848,"o":"m 37 448 q 185 770 57 642 q 491 898 313 898 q 751 789 654 898 q 848 510 848 681 q 844 448 848 479 q 688 99 822 227 q 387 -22 563 -22 q 132 79 228 -22 q 33 370 31 184 q 37 448 33 408 m 193 391 q 251 195 193 274 q 400 117 309 117 q 610 240 525 117 q 686 480 686 351 q 628 680 686 600 q 475 761 570 761 q 267 633 350 761 q 193 391 193 521 m 305 918 l 320 1054 l 526 1202 l 708 1054 l 694 920 l 510 1040 l 305 918 z "},"Õ":{"ha":899,"x_min":37,"x_max":852,"o":"m 41 448 q 189 770 61 642 q 496 898 317 898 q 755 789 659 898 q 852 510 852 681 q 848 448 852 479 q 692 99 826 227 q 391 -22 567 -22 q 136 79 232 -22 q 37 370 35 184 q 41 448 37 408 m 197 391 q 255 195 197 274 q 404 117 313 117 q 614 240 529 117 q 690 480 690 351 q 632 680 690 600 q 479 761 574 761 q 271 633 354 761 q 197 391 197 521 m 461 971 q 403 1002 415 1004 q 304 937 368 1002 l 263 1046 q 415 1118 324 1115 q 508 1082 458 1119 q 572 1044 557 1044 q 647 1088 590 1044 l 688 982 q 623 945 663 960 q 563 929 583 929 q 461 971 522 929 z "},"Ö":{"ha":899,"x_min":37,"x_max":850,"o":"m 41 448 q 188 770 60 642 q 496 898 316 898 q 754 789 658 898 q 850 510 850 681 q 848 448 850 479 q 690 99 825 227 q 389 -22 566 -22 q 134 81 231 -22 q 37 370 37 184 q 41 448 37 408 m 195 391 q 254 195 195 274 q 404 117 313 117 q 613 240 528 117 q 689 480 689 351 q 631 680 689 600 q 477 761 572 761 q 270 633 354 761 q 195 391 195 521 m 563 1039 q 593 1104 567 1077 q 671 1139 624 1139 q 741 1104 716 1139 q 757 1039 761 1074 q 727 972 754 1001 q 650 939 694 939 q 579 972 601 939 q 563 1039 559 1000 m 271 1039 q 301 1104 275 1077 q 380 1139 332 1139 q 449 1104 426 1139 q 465 1039 469 1074 q 435 972 461 1001 q 358 939 404 939 q 288 972 311 939 q 271 1039 267 1000 z "},"Ø":{"ha":894,"x_min":43,"x_max":857,"o":"m 47 448 q 195 770 66 642 q 503 898 324 898 q 559 892 533 898 l 583 954 l 730 907 l 701 838 q 857 510 857 735 q 854 448 857 479 q 697 99 831 227 q 396 -22 572 -22 q 353 -19 381 -22 l 320 -103 l 174 -56 l 208 26 q 43 370 43 126 q 47 448 43 408 m 410 117 l 411 117 q 620 240 534 117 q 696 480 696 351 q 637 681 696 601 l 410 117 m 203 391 q 271 183 203 266 l 505 760 q 484 761 498 761 q 277 635 359 761 q 203 391 203 522 z "},"Ù":{"ha":792,"x_min":65,"x_max":746,"o":"m 331 -23 q 144 45 216 -23 q 65 266 65 121 q 68 327 65 296 l 127 888 l 293 888 l 233 327 q 231 275 231 301 q 347 113 231 113 q 454 160 408 113 q 521 327 510 217 l 581 888 l 746 888 l 686 327 q 556 57 669 152 q 331 -23 460 -23 m 548 952 l 271 1078 l 346 1168 l 624 1035 l 548 952 z "},"Ú":{"ha":792,"x_min":65,"x_max":746,"o":"m 331 -23 q 146 45 216 -23 q 65 266 66 121 q 69 327 65 296 l 127 888 l 293 888 l 235 327 q 232 275 232 301 q 349 113 232 113 q 456 160 410 113 q 522 327 510 217 l 581 888 l 746 888 l 688 327 q 557 57 669 152 q 331 -23 461 -23 m 252 1036 l 566 1160 l 640 1051 l 331 936 l 252 1036 z "},"Û":{"ha":792,"x_min":64,"x_max":745,"o":"m 330 -23 q 142 45 214 -23 q 64 266 64 121 q 66 327 64 296 l 126 888 l 292 888 l 232 327 q 229 275 229 301 q 346 113 229 113 q 453 160 407 113 q 519 327 509 217 l 579 888 l 745 888 l 685 327 q 555 57 667 152 q 330 -23 458 -23 m 237 932 l 250 1054 l 457 1202 l 639 1054 l 627 933 l 441 1040 l 237 932 z "},"Ü":{"ha":723,"x_min":66,"x_max":747,"o":"m 332 -23 q 146 45 217 -23 q 66 266 68 121 q 71 327 66 296 l 129 888 l 294 888 l 236 327 q 232 275 232 301 q 349 113 232 113 q 457 160 410 113 q 524 327 511 217 l 582 888 l 747 888 l 689 327 q 557 57 670 152 q 332 -23 461 -23 m 488 1039 q 519 1104 492 1076 q 597 1139 551 1139 q 667 1104 643 1139 q 684 1039 688 1074 q 652 972 681 1001 q 576 939 621 939 q 506 972 529 939 q 488 1039 486 1000 m 198 1039 q 229 1104 202 1077 q 307 1139 260 1139 q 377 1104 351 1139 q 392 1039 396 1074 q 361 972 389 1001 q 286 939 330 939 q 216 972 237 939 q 198 1039 194 1000 z "},"Ý":{"ha":699,"x_min":69,"x_max":708,"o":"m 382 0 l 217 0 l 255 377 l 69 863 l 227 909 l 357 521 l 566 909 l 708 863 l 420 377 l 382 0 m 235 967 l 544 1090 l 620 982 l 309 867 l 235 967 z "},"Þ":{"ha":754,"x_min":24,"x_max":704,"o":"m 225 250 l 183 -151 l 24 -151 l 141 972 l 300 972 l 289 860 q 441 940 388 940 q 642 838 570 940 q 704 616 704 749 q 703 566 704 591 q 583 271 684 370 q 363 184 498 186 q 293 206 327 184 q 225 250 259 228 m 273 708 l 239 389 q 294 336 256 358 q 370 313 332 313 q 505 416 456 313 q 541 595 543 495 q 510 738 541 684 q 401 800 473 800 q 273 708 328 800 z "},"ß":{"ha":762,"x_min":20,"x_max":671,"o":"m 206 84 l 286 194 q 359 122 321 137 q 425 115 377 115 q 488 148 463 115 q 514 208 509 172 q 473 278 518 252 q 395 308 458 286 q 259 496 260 354 q 262 526 259 511 q 323 644 267 582 q 465 718 388 718 q 526 705 496 718 q 533 743 532 715 q 534 783 534 762 q 497 835 538 815 q 401 854 456 854 q 300 808 346 854 q 247 694 254 762 l 174 -1 l 20 -1 l 95 694 q 189 905 109 823 q 422 993 278 994 q 597 933 536 993 q 659 769 659 873 q 658 732 659 751 q 591 557 648 639 q 479 587 514 589 q 410 519 416 587 q 437 479 407 495 q 509 454 445 475 q 651 346 614 419 q 671 216 677 294 q 581 48 661 117 q 404 -20 500 -20 q 294 -5 326 -20 q 206 84 259 12 z "},"à":{"ha":681,"x_min":39,"x_max":633,"o":"m 560 869 l 274 993 l 176 884 l 461 769 l 560 869 m 411 309 q 308 298 369 309 q 218 273 241 288 q 175 190 182 252 q 193 121 171 151 q 248 92 216 92 q 395 159 331 92 l 411 309 m 401 75 q 313 8 338 23 q 218 -22 263 -23 q 91 26 142 -22 q 39 160 39 75 q 41 189 39 174 q 125 353 53 304 q 300 407 171 382 q 419 425 365 419 l 427 498 q 408 555 430 529 q 353 582 387 582 q 137 487 227 582 l 85 572 q 221 675 130 635 q 366 711 300 712 q 526 647 465 711 q 576 484 586 583 l 538 136 q 548 117 538 127 q 568 106 557 106 q 628 119 613 106 l 633 31 q 494 -15 543 -15 q 442 9 472 -15 q 401 75 407 38 z "},"á":{"ha":681,"x_min":39,"x_max":633,"o":"m 216 869 l 526 993 l 601 884 l 292 769 l 216 869 m 411 309 q 308 298 369 309 q 218 273 241 288 q 175 190 182 252 q 193 121 171 151 q 248 92 216 92 q 395 159 331 92 l 411 309 m 401 75 q 313 8 338 23 q 218 -22 263 -23 q 91 26 142 -22 q 39 160 39 75 q 41 189 39 174 q 125 353 53 304 q 300 407 171 382 q 419 425 365 419 l 427 498 q 408 555 430 529 q 353 582 387 582 q 137 487 227 582 l 85 572 q 221 675 130 635 q 366 711 300 712 q 526 647 465 711 q 576 484 586 583 l 538 136 q 548 117 538 127 q 568 106 557 106 q 628 119 613 106 l 633 31 q 494 -15 543 -15 q 442 9 472 -15 q 401 75 407 38 z "},"â":{"ha":681,"x_min":39,"x_max":633,"o":"m 184 724 l 197 846 l 404 993 l 586 846 l 574 726 l 388 831 l 184 724 m 411 309 q 308 298 369 309 q 218 273 241 288 q 175 190 182 252 q 193 121 171 151 q 248 92 216 92 q 395 159 331 92 l 411 309 m 401 75 q 313 8 338 23 q 218 -22 263 -23 q 91 26 142 -22 q 39 160 39 75 q 41 189 39 174 q 125 353 53 304 q 300 407 171 382 q 419 425 365 419 l 427 498 q 408 555 430 529 q 353 582 387 582 q 137 487 227 582 l 85 572 q 221 675 130 635 q 366 711 300 712 q 526 647 465 711 q 576 484 586 583 l 538 136 q 548 117 538 127 q 568 106 557 106 q 628 119 613 106 l 633 31 q 494 -15 543 -15 q 442 9 472 -15 q 401 75 407 38 z "},"ã":{"ha":681,"x_min":39,"x_max":633,"o":"m 351 804 q 293 836 307 837 q 194 770 258 836 l 151 879 q 304 951 213 948 q 397 915 346 952 q 461 878 448 878 q 536 921 479 878 l 578 815 q 510 776 553 793 q 453 762 472 762 q 351 804 410 762 m 411 309 q 308 298 369 309 q 218 273 241 288 q 175 190 182 252 q 193 121 171 151 q 248 92 216 92 q 395 159 331 92 l 411 309 m 401 75 q 313 8 338 23 q 218 -22 263 -23 q 91 26 142 -22 q 39 160 39 75 q 41 189 39 174 q 125 353 53 304 q 300 407 171 382 q 419 425 365 419 l 427 498 q 408 555 430 529 q 353 582 387 582 q 137 487 227 582 l 85 572 q 221 675 130 635 q 366 711 300 712 q 526 647 465 711 q 576 484 586 583 l 538 136 q 548 117 538 127 q 568 106 557 106 q 628 119 613 106 l 633 31 q 494 -15 543 -15 q 442 9 472 -15 q 401 75 407 38 z "},"ä":{"ha":681,"x_min":39,"x_max":633,"o":"m 435 830 q 465 895 439 868 q 543 930 496 930 q 613 895 587 930 q 629 830 633 865 q 598 764 627 792 q 522 731 567 730 q 452 764 473 731 q 435 830 433 791 m 142 830 q 174 895 146 868 q 251 930 205 930 q 321 895 297 930 q 338 830 342 865 q 307 764 335 792 q 231 731 275 730 q 160 764 183 731 q 142 830 140 791 m 411 309 q 308 298 369 309 q 218 273 241 288 q 175 190 182 252 q 193 121 171 151 q 248 92 216 92 q 395 159 331 92 l 411 309 m 401 75 q 313 8 338 23 q 218 -22 263 -23 q 91 26 142 -22 q 39 160 39 75 q 41 189 39 174 q 125 353 53 304 q 300 407 171 382 q 419 425 365 419 l 427 498 q 408 555 430 529 q 353 582 387 582 q 137 487 227 582 l 85 572 q 221 675 130 635 q 366 711 300 712 q 526 647 465 711 q 576 484 586 583 l 538 136 q 548 117 538 127 q 568 106 557 106 q 628 119 613 106 l 633 31 q 494 -15 543 -15 q 442 9 472 -15 q 401 75 407 38 z "},"å":{"ha":681,"x_min":39,"x_max":633,"o":"m 362 787 q 276 821 307 787 q 251 907 245 854 q 295 993 256 959 q 389 1027 334 1027 q 477 993 445 1027 q 503 907 509 959 q 458 821 498 854 q 362 787 419 787 m 382 967 q 332 907 338 967 q 369 846 326 846 q 422 907 415 846 q 382 967 429 967 m 411 309 q 308 298 369 309 q 218 273 241 288 q 175 190 182 252 q 193 121 171 151 q 248 92 216 92 q 395 159 331 92 l 411 309 m 401 75 q 313 8 338 23 q 218 -22 263 -23 q 91 26 142 -22 q 39 160 39 75 q 41 189 39 174 q 125 353 53 304 q 300 407 171 382 q 419 425 365 419 l 427 498 q 408 555 430 529 q 353 582 387 582 q 137 487 227 582 l 85 572 q 221 675 130 635 q 366 711 300 712 q 526 647 465 711 q 576 484 586 583 l 538 136 q 548 117 538 127 q 568 106 557 106 q 628 119 613 106 l 633 31 q 494 -15 543 -15 q 442 9 472 -15 q 401 75 407 38 z "},"æ":{"ha":1076,"x_min":39,"x_max":1019,"o":"m 777 595 q 663 559 703 595 q 604 452 633 532 l 865 452 l 865 453 q 868 487 868 471 q 777 595 868 595 m 353 -1 q 225 -22 296 -22 q 95 24 146 -22 q 39 161 39 75 q 41 189 39 175 q 129 357 53 304 q 308 420 178 391 q 431 444 363 433 l 439 498 q 419 548 442 528 q 361 568 396 568 q 171 473 297 568 l 98 586 q 248 677 160 637 q 377 711 331 712 q 562 620 502 711 q 798 704 659 704 q 958 640 897 704 q 1019 464 1019 575 q 1017 422 1019 444 l 1006 332 l 590 332 q 587 281 587 307 q 739 95 587 95 q 907 203 814 95 l 972 104 q 718 -16 863 -16 q 484 80 559 -16 q 353 -1 406 16 m 342 285 q 244 263 266 271 q 187 186 194 241 q 254 111 179 111 q 345 129 300 111 q 407 194 403 153 l 416 297 q 342 285 408 296 z "},"ç":{"ha":670,"x_min":66,"x_max":637,"o":"m 505 -183 q 460 -268 499 -232 q 357 -304 420 -304 q 244 -237 267 -304 l 300 -190 q 365 -235 335 -235 q 419 -187 415 -235 q 380 -133 426 -133 q 330 -155 359 -133 l 267 -125 l 285 -11 l 290 -11 q 107 119 165 11 q 66 298 66 195 q 68 336 66 319 q 206 624 87 522 q 435 709 307 712 q 637 621 515 709 l 581 525 q 411 598 499 598 q 271 481 323 598 q 228 286 228 387 q 266 146 228 198 q 368 94 304 94 q 557 182 448 94 l 612 100 q 369 -16 503 -11 l 363 -16 l 355 -65 q 391 -60 368 -60 q 480 -100 449 -60 q 505 -183 509 -134 m 363 -16 l 355 -65 q 391 -60 368 -60 q 480 -100 449 -60 q 505 -183 507 -136 q 460 -268 499 -232 q 357 -304 420 -304 q 244 -237 267 -304 l 300 -190 q 365 -235 335 -235 q 419 -187 415 -235 q 380 -133 426 -133 q 330 -155 359 -133 l 267 -125 l 286 -11 l 363 -16 z "},"è":{"ha":689,"x_min":52,"x_max":642,"o":"m 601 869 l 315 993 l 245 884 l 530 769 l 601 869 m 355 95 q 545 182 446 94 l 598 98 q 466 6 519 28 q 335 -16 412 -16 q 102 103 172 -16 q 52 302 52 184 q 54 343 52 324 q 164 601 71 500 q 415 708 264 708 q 574 648 511 708 q 642 473 642 583 q 640 435 642 454 l 629 331 l 218 331 q 216 271 216 297 q 355 95 216 96 m 490 449 q 494 487 492 469 q 395 600 494 600 q 307 564 349 600 q 240 449 260 522 l 490 449 z "},"é":{"ha":689,"x_min":52,"x_max":642,"o":"m 216 869 l 526 993 l 560 884 l 250 769 l 216 869 m 355 95 q 545 182 446 94 l 598 98 q 466 6 519 28 q 335 -16 412 -16 q 102 103 172 -16 q 52 302 52 184 q 54 343 52 324 q 164 601 71 500 q 415 708 264 708 q 574 648 511 708 q 642 473 642 583 q 640 435 642 454 l 629 331 l 218 331 q 216 271 216 297 q 355 95 216 96 m 490 449 q 494 487 492 469 q 395 600 494 600 q 307 564 349 600 q 240 449 260 522 l 490 449 z "},"ê":{"ha":689,"x_min":52,"x_max":642,"o":"m 216 779 l 228 902 l 435 1048 l 617 902 l 604 780 l 418 887 l 216 779 m 355 95 q 545 182 446 94 l 598 98 q 466 6 519 28 q 335 -16 412 -16 q 102 103 172 -16 q 52 302 52 184 q 54 343 52 324 q 164 601 71 500 q 415 708 264 708 q 574 648 511 708 q 642 473 642 583 q 640 435 642 454 l 629 331 l 218 331 q 216 271 216 297 q 355 95 216 96 m 490 449 q 494 487 492 469 q 395 600 494 600 q 307 564 349 600 q 240 449 260 522 l 490 449 z "},"ë":{"ha":689,"x_min":50,"x_max":627,"o":"m 395 872 q 425 937 399 910 q 503 972 456 972 q 574 937 549 972 q 590 872 594 907 q 559 806 586 834 q 481 772 526 772 q 412 806 435 772 q 395 872 391 833 m 103 872 q 134 937 107 909 q 212 972 165 972 q 281 937 258 972 q 298 872 301 907 q 267 806 294 834 q 190 772 236 772 q 121 806 144 772 q 103 872 99 833 m 355 95 q 545 182 446 94 l 598 98 q 466 6 519 28 q 335 -16 412 -16 q 102 103 172 -16 q 52 302 52 184 q 54 343 52 324 q 164 601 71 500 q 415 708 264 708 q 574 648 511 708 q 642 473 642 583 q 640 435 642 454 l 629 331 l 218 331 q 216 271 216 297 q 355 95 216 96 m 490 449 q 494 487 492 469 q 395 600 494 600 q 307 564 349 600 q 240 449 260 522 l 490 449 z "},"ì":{"ha":345,"x_min":-20,"x_max":355,"o":"m 123 688 l 273 688 l 199 0 l 52 0 l 123 688 m 366 869 l 80 993 l -18 884 l 269 769 l 366 869 z "},"í":{"ha":324,"x_min":24,"x_max":382,"o":"m 24 869 l 336 993 l 382 884 l 73 769 l 24 869 m 107 688 l 255 688 l 183 0 l 35 0 l 107 688 z "},"î":{"ha":292,"x_min":-50,"x_max":343,"o":"m 123 688 l 273 688 l 199 0 l 52 0 l 123 688 m -47 724 l -35 846 l 171 993 l 354 846 l 340 726 l 155 831 l -47 724 z "},"ï":{"ha":286,"x_min":-76,"x_max":410,"o":"m 109 688 l 256 688 l 184 0 l 37 0 l 109 688 m 216 872 q 244 937 220 910 q 324 972 275 972 q 393 937 370 972 q 410 872 414 907 q 380 806 406 834 q 301 772 347 772 q 232 806 255 772 q 216 872 212 833 m -76 872 q -46 937 -72 909 q 33 972 -15 972 q 102 937 79 972 q 118 872 122 907 q 88 806 114 834 q 9 772 57 772 q -60 806 -37 772 q -76 872 -80 833 z "},"ð":{"ha":803,"x_min":33,"x_max":792,"o":"m 403 623 q 247 511 305 623 q 197 313 197 419 q 239 153 197 221 q 349 77 283 79 q 494 161 438 77 q 555 345 543 233 q 570 479 570 480 q 403 623 480 623 m 442 860 q 373 948 427 887 l 486 1023 q 605 860 557 943 l 792 860 l 783 758 l 678 758 q 720 454 722 633 q 718 388 720 415 q 309 -23 669 -23 q 100 79 176 -23 q 33 301 33 170 q 133 600 33 481 q 416 724 239 723 q 562 644 453 724 q 537 715 564 675 q 505 758 521 735 l 309 758 l 320 860 l 442 860 z "},"ñ":{"ha":674,"x_min":50,"x_max":636,"o":"m 380 804 q 321 836 335 837 q 222 770 286 836 l 179 879 q 332 951 240 948 q 425 915 376 952 q 488 878 475 878 q 564 921 506 878 l 605 815 q 541 778 581 793 q 480 762 502 762 q 380 804 438 762 m 484 445 q 486 477 486 463 q 419 585 486 585 q 308 526 369 585 q 243 420 247 467 l 198 0 l 50 0 l 122 689 l 271 689 l 258 566 q 445 709 357 709 q 581 650 525 709 q 636 494 636 590 q 635 461 636 479 l 586 0 l 438 0 l 484 445 z "},"ò":{"ha":754,"x_min":52,"x_max":707,"o":"m 568 772 l 290 898 l 365 987 l 643 854 l 568 772 m 54 350 q 195 628 73 528 q 420 711 297 711 q 614 640 533 711 q 707 404 708 556 q 704 350 707 378 q 618 126 692 228 q 345 -15 517 -15 q 104 96 178 -15 q 52 298 52 176 q 54 350 52 326 m 213 298 q 245 156 213 210 q 350 94 282 94 q 500 201 445 94 q 545 396 547 290 q 515 538 545 484 q 415 601 479 601 q 259 495 316 601 q 213 298 213 406 z "},"ó":{"ha":754,"x_min":52,"x_max":707,"o":"m 274 869 l 585 993 l 659 884 l 350 769 l 274 869 m 54 350 q 195 628 73 528 q 420 711 297 711 q 614 640 533 711 q 707 404 708 556 q 704 350 707 378 q 618 126 692 228 q 345 -15 517 -15 q 104 96 178 -15 q 52 298 52 176 q 54 350 52 326 m 213 298 q 245 156 213 210 q 350 94 282 94 q 500 201 445 94 q 545 396 547 290 q 515 538 545 484 q 415 601 479 601 q 259 495 316 601 q 213 298 213 406 z "},"ô":{"ha":754,"x_min":52,"x_max":707,"o":"m 227 724 l 239 846 l 446 993 l 628 846 l 616 726 l 429 831 l 227 724 m 54 350 q 195 628 73 528 q 420 711 297 711 q 614 640 533 711 q 707 404 708 556 q 704 350 707 378 q 618 126 692 228 q 345 -15 517 -15 q 104 96 178 -15 q 52 298 52 176 q 54 350 52 326 m 213 298 q 245 156 213 210 q 350 94 282 94 q 500 201 445 94 q 545 396 547 290 q 515 538 545 484 q 415 601 479 601 q 259 495 316 601 q 213 298 213 406 z "},"õ":{"ha":754,"x_min":52,"x_max":707,"o":"m 422 804 q 365 836 376 837 q 267 770 328 836 l 224 879 q 378 951 286 948 q 470 915 420 952 q 533 878 519 878 q 609 921 551 878 l 648 815 q 582 776 625 793 q 524 762 544 762 q 422 804 483 762 m 54 350 q 195 628 73 528 q 420 711 297 711 q 614 640 533 711 q 707 404 708 556 q 704 350 707 378 q 618 126 692 228 q 345 -15 517 -15 q 104 96 178 -15 q 52 298 52 176 q 54 350 52 326 m 213 298 q 245 156 213 210 q 350 94 282 94 q 500 201 445 94 q 545 396 547 290 q 515 538 545 484 q 415 601 479 601 q 259 495 316 601 q 213 298 213 406 z "},"ö":{"ha":754,"x_min":50,"x_max":690,"o":"m 437 872 q 467 937 441 910 q 545 972 498 972 q 616 937 591 972 q 632 872 636 907 q 601 806 628 834 q 524 772 568 772 q 454 806 477 772 q 437 872 433 833 m 145 872 q 176 937 149 909 q 254 972 208 972 q 323 937 300 972 q 340 872 343 907 q 309 806 336 834 q 232 772 278 772 q 163 806 186 772 q 145 872 141 833 m 54 350 q 195 628 73 528 q 420 711 297 711 q 614 640 533 711 q 707 404 708 556 q 704 350 707 378 q 618 126 692 228 q 345 -15 517 -15 q 104 96 178 -15 q 52 298 52 176 q 54 350 52 326 m 213 298 q 245 156 213 210 q 350 94 282 94 q 500 201 445 94 q 545 396 547 290 q 515 538 545 484 q 415 601 479 601 q 259 495 316 601 q 213 298 213 406 z "},"÷":{"ha":688,"x_min":72,"x_max":633,"o":"m 264 667 q 294 745 264 713 q 363 776 323 776 q 436 744 407 776 q 465 667 465 712 q 436 591 465 623 q 363 559 407 559 q 293 591 321 559 q 264 667 264 623 m 72 500 l 633 500 l 633 361 l 72 361 l 72 500 m 264 197 q 294 273 264 241 q 363 305 323 305 q 436 273 407 305 q 465 197 465 241 q 436 119 465 151 q 363 88 407 88 q 293 119 321 88 q 264 197 264 151 z "},"ø":{"ha":758,"x_min":52,"x_max":707,"o":"m 621 762 l 581 663 q 707 404 707 582 q 704 350 707 378 q 618 126 692 228 q 343 -15 515 -15 q 307 -14 319 -15 l 271 -103 l 127 -56 l 164 35 q 52 298 52 113 q 54 350 52 324 q 194 628 72 528 q 420 711 297 711 l 437 711 l 476 810 l 621 762 m 392 600 q 269 509 317 589 q 214 342 224 439 q 228 193 206 259 l 392 600 m 543 349 q 524 521 552 449 l 350 94 q 483 174 429 95 q 543 349 532 245 z "},"ù":{"ha":669,"x_min":75,"x_max":656,"o":"m 524 772 l 247 898 l 321 987 l 600 854 l 524 772 m 450 0 q 446 99 449 38 q 262 -24 338 -24 q 130 35 184 -24 q 75 194 75 95 q 76 231 75 212 l 125 688 l 274 688 l 227 235 q 224 197 224 214 q 285 104 224 103 q 400 168 335 104 q 464 263 460 227 l 509 688 l 656 688 l 585 0 l 450 0 z "},"ú":{"ha":669,"x_min":75,"x_max":656,"o":"m 216 869 l 528 993 l 601 884 l 293 769 l 216 869 m 450 0 q 446 99 449 38 q 262 -24 338 -24 q 130 35 184 -24 q 75 194 75 95 q 76 231 75 212 l 125 688 l 274 688 l 227 235 q 224 197 224 214 q 285 104 224 103 q 400 168 335 104 q 464 263 460 227 l 509 688 l 656 688 l 585 0 l 450 0 z "},"û":{"ha":669,"x_min":75,"x_max":656,"o":"m 198 724 l 212 846 l 419 993 l 600 846 l 587 726 l 401 831 l 198 724 m 450 0 q 446 99 449 38 q 262 -24 338 -24 q 130 35 184 -24 q 75 194 75 95 q 76 231 75 212 l 125 688 l 274 688 l 227 235 q 224 197 224 214 q 285 104 224 103 q 400 168 335 104 q 464 263 460 227 l 509 688 l 656 688 l 585 0 l 450 0 z "},"ü":{"ha":669,"x_min":73,"x_max":642,"o":"m 410 872 q 439 937 414 910 q 518 972 471 972 q 589 937 564 972 q 605 872 609 907 q 574 806 601 834 q 496 772 541 772 q 427 806 450 772 q 410 872 406 833 m 118 872 q 149 937 122 909 q 227 972 180 972 q 296 937 273 972 q 313 872 316 907 q 282 806 309 834 q 205 772 251 772 q 136 806 159 772 q 118 872 114 833 m 450 0 q 446 99 449 38 q 262 -24 338 -24 q 130 35 184 -24 q 75 194 75 95 q 76 231 75 212 l 125 688 l 274 688 l 227 235 q 224 197 224 214 q 285 104 224 103 q 400 168 335 104 q 464 263 460 227 l 509 688 l 656 688 l 585 0 l 450 0 z "},"ý":{"ha":666,"x_min":-23,"x_max":675,"o":"m 239 892 l 549 1016 l 583 907 l 275 792 l 239 892 m 107 -273 q -23 -239 68 -273 l 35 -107 q 129 -134 84 -134 q 267 45 199 -136 l 79 656 l 241 699 l 351 190 l 556 696 l 692 661 l 335 -109 q 250 -218 302 -174 q 107 -273 184 -273 z "},"þ":{"ha":724,"x_min":19,"x_max":690,"o":"m 245 -5 q 212 18 237 -1 l 208 20 l 176 -271 l 19 -271 l 148 951 l 304 951 l 269 600 q 351 670 335 658 q 442 705 403 707 q 631 620 564 705 q 690 415 690 543 q 688 365 690 391 q 567 65 669 167 q 339 -24 476 -26 q 245 -5 282 -24 m 248 419 l 221 155 q 280 119 239 137 q 353 102 321 102 q 488 212 438 102 q 528 400 528 300 q 410 574 528 574 q 321 519 372 574 q 248 419 281 475 z "},"ÿ":{"ha":648,"x_min":-30,"x_max":686,"o":"m 102 -273 q -30 -239 66 -273 l 30 -107 q 123 -134 79 -134 q 209 -54 165 -134 q 262 66 235 7 l 73 656 l 225 699 l 347 190 l 552 696 l 686 661 l 330 -109 q 244 -218 298 -174 q 102 -273 179 -273 m 431 830 q 463 895 435 867 q 540 930 494 930 q 610 895 586 930 q 627 830 631 865 q 595 764 623 792 q 518 731 564 730 q 449 764 471 731 q 431 830 427 791 m 141 830 q 171 895 145 868 q 250 930 202 930 q 317 895 294 930 q 335 830 338 865 q 304 764 331 792 q 228 731 273 730 q 157 764 180 731 q 141 830 137 791 z "},"†":{"ha":307,"x_min":33,"x_max":267,"o":"m 187 742 l 187 463 l 99 463 l 99 742 l 33 742 l 33 833 l 99 833 l 99 910 l 187 910 l 187 833 l 267 833 l 267 742 l 187 742 z "},"•":{"ha":391,"x_min":66,"x_max":321,"o":"m 179 264 q 93 304 126 264 q 66 404 60 343 q 115 503 73 464 q 210 543 157 543 q 295 503 262 543 q 321 404 328 464 q 273 304 315 345 q 179 264 232 264 z "},"™":{"ha":890,"x_min":20,"x_max":860,"o":"m 241 438 l 153 438 l 153 819 l 20 819 l 20 891 l 365 891 l 365 819 l 241 819 l 241 438 m 770 713 l 665 438 l 590 438 l 483 716 l 483 438 l 400 438 l 400 894 l 509 894 l 632 576 l 755 894 l 860 894 l 860 438 l 770 438 l 770 713 z "},"´":{"ha":456,"x_min":64,"x_max":408,"o":"m 64 869 l 374 993 l 408 884 l 100 769 l 64 869 z "},"¨":{"ha":425,"x_min":-35,"x_max":452,"o":"m 256 872 q 286 937 260 910 q 365 972 317 972 q 435 937 411 972 q 452 872 456 907 q 420 806 448 834 q 343 772 388 772 q 274 806 297 772 q 256 872 252 833 m -35 872 q -4 937 -31 909 q 73 972 27 972 q 142 937 119 972 q 160 872 163 907 q 129 806 156 834 q 52 772 98 772 q -18 806 5 772 q -35 872 -39 833 z "},"≠":{"ha":612,"x_min":71,"x_max":540,"o":"m 127 16 l 179 174 l 71 174 l 71 309 l 224 309 l 244 369 l 71 369 l 71 506 l 289 506 l 369 749 l 494 704 l 426 506 l 540 506 l 540 369 l 382 369 l 361 309 l 540 309 l 540 174 l 316 174 l 250 -27 l 127 16 z "},"∞":{"ha":743,"x_min":12,"x_max":731,"o":"m 358 422 q 205 366 290 366 q 60 420 117 366 q 12 553 4 475 q 88 684 20 629 q 243 738 156 738 q 387 684 328 738 q 540 738 453 738 q 682 684 625 738 q 731 553 739 629 q 655 422 723 477 q 502 366 587 366 q 358 422 412 366 m 433 555 q 452 499 430 522 q 513 476 475 476 q 578 499 551 476 q 609 555 605 522 q 589 608 612 586 q 529 631 566 631 q 463 608 491 631 q 433 555 435 586 m 134 555 q 157 496 130 518 q 216 477 179 479 q 279 498 252 477 q 311 555 307 518 q 291 608 313 586 q 232 631 269 631 q 165 608 194 631 q 134 555 137 586 z "},"≤":{"ha":347,"x_min":18,"x_max":362,"o":"m 362 161 l 221 155 l 18 392 l 221 623 l 362 617 l 190 388 l 362 161 m 30 107 l 336 107 l 336 5 l 30 5 l 30 107 z "},"≥":{"ha":347,"x_min":4,"x_max":347,"o":"m 4 161 l 175 388 l 4 617 l 144 623 l 347 392 l 144 155 l 4 161 m 30 107 l 336 107 l 336 5 l 30 5 l 30 107 z "},"∂":{"ha":766,"x_min":43,"x_max":711,"o":"m 410 705 q 570 628 505 705 q 543 715 563 665 q 505 779 522 765 q 377 814 461 814 q 172 766 281 814 l 146 924 q 366 958 260 958 q 591 895 515 958 q 711 557 711 800 q 703 414 711 492 q 324 -23 656 -24 q 113 73 190 -23 q 43 289 43 161 q 136 582 43 468 q 410 705 236 705 m 395 578 q 272 519 321 578 q 212 349 222 460 q 210 311 210 330 q 248 173 210 227 q 353 119 286 119 q 555 369 528 119 q 559 475 560 423 q 395 578 494 578 z "},"∑":{"ha":681,"x_min":81,"x_max":669,"o":"m 95 126 l 393 471 l 159 745 l 190 879 l 669 879 l 652 734 l 377 734 l 590 484 l 304 152 l 591 153 l 576 0 l 81 0 l 95 126 z "},"∏":{"ha":826,"x_min":123,"x_max":757,"o":"m 491 0 l 570 735 l 372 735 l 294 0 l 123 0 l 218 891 l 757 891 l 662 0 l 491 0 z "},"π":{"ha":719,"x_min":110,"x_max":680,"o":"m 503 570 l 331 570 l 271 0 l 110 0 l 170 570 l 118 570 l 133 705 l 680 705 l 604 0 l 444 0 l 503 570 z "},"∫":{"ha":420,"x_min":-34,"x_max":509,"o":"m 357 826 q 283 694 283 826 q 316 442 283 637 q 349 160 349 260 q 346 88 349 121 q 281 -102 334 -28 q 92 -194 214 -195 q -34 -161 62 -194 l 18 5 q 114 -34 80 -34 q 184 110 170 -34 q 151 380 190 161 q 117 659 117 559 q 119 728 117 696 q 187 909 130 840 q 378 990 256 990 q 509 940 431 990 l 420 788 q 357 826 378 826 z "},"Ω":{"ha":897,"x_min":39,"x_max":823,"o":"m 547 137 l 753 137 l 739 0 l 419 0 l 449 282 q 594 353 529 282 q 656 481 650 415 q 659 540 659 513 q 473 760 659 758 q 300 687 368 760 q 220 481 233 614 q 248 353 212 410 q 387 282 293 282 l 357 0 l 39 0 l 53 137 l 252 137 l 256 174 q 115 283 171 197 q 60 467 60 369 q 179 770 60 655 q 487 884 298 884 q 823 564 823 884 q 819 496 823 532 q 731 296 808 393 q 552 174 650 195 l 547 137 z "},"√":{"ha":699,"x_min":71,"x_max":505,"o":"m 187 -14 l 71 427 l 212 506 l 247 311 l 357 887 l 505 887 l 321 -14 l 187 -14 z "},"ƒ":{"ha":500,"x_min":33,"x_max":570,"o":"m 370 842 q 289 693 301 842 l 464 693 l 452 555 l 281 555 l 217 -170 l 66 -171 l 132 552 l 33 551 l 46 690 l 142 692 q 380 987 172 985 q 483 968 444 987 q 570 909 490 964 l 487 792 q 370 842 411 842 z "},"≈":{"ha":743,"x_min":164,"x_max":589,"o":"m 370 396 q 324 425 336 426 q 286 404 308 425 q 228 331 277 395 l 190 467 q 340 552 270 551 q 427 522 387 552 q 476 491 468 491 q 517 525 483 491 q 551 559 517 525 l 589 426 q 453 357 515 357 q 370 396 414 357 m 345 149 q 297 178 309 179 q 262 157 281 178 q 201 84 251 146 l 164 220 q 315 304 244 304 q 401 275 359 304 q 450 245 442 245 q 490 278 457 245 q 524 311 490 278 l 563 179 q 426 110 490 110 q 345 149 391 110 z "},"Δ":{"ha":956,"x_min":58,"x_max":853,"o":"m 494 913 l 640 913 l 853 0 l 58 0 l 494 913 m 292 125 l 648 125 l 540 681 l 292 125 z "},"…":{"ha":1249,"x_min":174,"x_max":1078,"o":"m 837 73 q 884 167 842 132 q 971 197 922 198 q 1053 164 1021 197 q 1078 73 1084 132 q 1034 -17 1073 16 q 945 -50 994 -50 q 863 -17 895 -50 q 837 73 831 16 m 506 73 q 553 167 511 132 q 639 197 591 198 q 720 164 689 197 q 746 73 751 132 q 701 -17 741 16 q 614 -50 662 -50 q 532 -17 564 -50 q 506 73 500 16 m 174 73 q 221 167 179 132 q 307 197 259 198 q 388 164 357 197 q 414 73 419 132 q 370 -17 408 16 q 282 -50 331 -50 q 200 -17 232 -50 q 174 73 168 16 z "},"–":{"ha":694,"x_min":47,"x_max":647,"o":"m 47 505 l 647 505 l 647 406 l 47 406 l 47 505 z "},"—":{"ha":1389,"x_min":38,"x_max":1351,"o":"m 38 505 l 1351 505 l 1351 406 l 38 406 l 38 505 z "},"“":{"ha":595,"x_min":57,"x_max":551,"o":"m 460 937 l 551 933 q 502 804 518 876 q 480 685 499 791 l 335 685 q 382 815 342 735 q 460 937 419 888 m 182 937 l 273 933 q 224 804 240 876 q 203 685 221 791 l 57 685 q 104 815 64 735 q 182 937 141 888 z "},"”":{"ha":595,"x_min":58,"x_max":552,"o":"m 149 671 l 58 689 q 109 818 92 746 q 127 937 111 831 l 274 937 q 227 800 269 887 q 149 671 187 719 m 426 671 l 336 689 q 387 818 370 746 q 406 937 389 831 l 552 937 q 505 800 547 887 q 426 671 464 719 z "},"‘":{"ha":191,"x_min":-12,"x_max":203,"o":"m 113 937 l 203 933 q 155 804 171 876 q 133 685 152 791 l -12 685 q 35 815 -5 735 q 113 937 72 888 z "},"’":{"ha":191,"x_min":-11,"x_max":205,"o":"m 79 685 l -11 703 q 39 831 23 760 q 58 951 42 845 l 205 951 q 157 814 199 901 q 79 685 117 732 z "},"◊":{"ha":799,"x_min":16,"x_max":746,"o":"m 16 463 l 382 818 l 746 463 l 382 109 l 16 463 m 221 461 l 387 301 l 551 461 l 387 623 l 221 461 z "},"⁄":{"ha":745,"x_min":45,"x_max":751,"o":"m 45 175 l 617 825 l 751 734 l 179 83 l 45 175 z "},"¤":{"ha":678,"x_min":37,"x_max":633,"o":"m 343 484 l 336 422 l 562 422 l 551 313 l 326 313 l 308 152 l 552 153 l 534 0 l 129 0 l 163 313 l 37 313 l 47 422 l 174 422 l 180 486 l 54 486 l 66 606 l 193 606 l 224 888 l 633 888 l 618 743 l 370 743 l 355 606 l 581 606 l 568 484 l 343 484 z "},"‹":{"ha":442,"x_min":68,"x_max":412,"o":"m 412 175 l 271 170 l 68 401 l 271 627 l 412 621 l 240 397 l 412 175 z "},"›":{"ha":439,"x_min":42,"x_max":385,"o":"m 42 175 l 213 397 l 42 621 l 182 627 l 385 401 l 182 170 l 42 175 z "},"":{"ha":671,"x_min":31,"x_max":618,"o":"m 385 913 q 288 692 305 914 l 618 692 l 545 0 l 392 0 l 452 567 l 274 567 l 214 0 l 68 0 l 127 567 l 31 567 l 43 692 l 140 692 l 149 766 q 208 936 159 863 q 397 1039 275 1039 q 502 1021 463 1039 q 585 964 507 1017 l 496 863 q 385 913 429 911 z "},"":{"ha":734,"x_min":33,"x_max":696,"o":"m 534 888 l 543 971 l 696 971 l 593 1 l 441 1 l 525 808 q 384 872 472 872 q 297 776 308 872 l 289 692 l 412 692 l 399 567 l 275 567 l 216 0 l 69 0 l 129 567 l 33 567 l 46 692 l 142 692 l 146 726 q 368 997 176 998 q 534 888 450 997 z "},"‡":{"ha":307,"x_min":5,"x_max":282,"o":"m 195 532 l 195 340 l 90 340 l 90 532 l 5 532 l 5 614 l 90 614 l 90 726 l 5 726 l 5 806 l 90 806 l 90 910 l 195 910 l 195 806 l 282 806 l 282 726 l 195 726 l 195 614 l 282 614 l 282 532 l 195 532 z "},"‚":{"ha":297,"x_min":-11,"x_max":205,"o":"m 79 -149 l -11 -130 q 39 -1 23 -73 q 58 118 42 12 l 205 118 q 157 -19 199 68 q 79 -149 117 -102 z "},"„":{"ha":579,"x_min":58,"x_max":552,"o":"m 149 -163 l 58 -144 q 109 -15 92 -87 q 127 104 111 -1 l 274 104 q 227 -34 269 54 q 149 -163 187 -115 m 426 -163 l 336 -144 q 387 -15 370 -87 q 406 104 389 -1 l 552 104 q 505 -34 547 54 q 426 -163 464 -115 z "},"‰":{"ha":1230,"x_min":-16,"x_max":1145,"o":"m 996 355 q 1110 302 1067 355 q 1145 172 1153 250 q 1084 34 1135 81 q 958 -14 1032 -14 q 848 27 890 -14 q 806 142 806 68 q 859 291 806 227 q 996 355 913 355 m 251 903 q 368 851 326 903 q 403 719 411 799 q 340 583 393 631 q 214 534 288 534 q 104 576 146 534 q 62 690 62 617 q 115 840 62 776 q 251 903 168 903 m 629 355 q 744 302 701 355 q 777 172 787 250 q 716 34 768 81 q 590 -14 665 -14 q 479 27 521 -14 q 438 142 438 68 q 492 291 438 227 q 629 355 545 355 m -16 -64 l 610 880 l 746 827 l 129 -114 l -16 -64 m 941 168 q 970 110 935 110 q 1010 168 1005 110 q 1005 208 1012 186 q 981 229 998 229 q 941 168 947 229 m 197 715 q 227 658 191 658 q 267 715 262 658 q 237 776 274 776 q 197 715 203 776 m 575 168 q 602 110 568 110 q 644 168 637 110 q 639 208 646 186 q 614 229 632 229 q 575 168 581 229 z "},"":{"ha":762,"x_min":218,"x_max":560,"o":"m 419 629 l 419 669 l 469 669 l 469 715 l 510 715 l 510 669 l 560 669 l 560 629 l 510 629 l 510 583 l 469 583 l 469 629 l 419 629 m 218 259 l 218 298 l 267 298 l 267 345 l 308 345 l 308 298 l 357 298 l 357 259 l 308 259 l 308 213 l 267 213 l 267 259 l 218 259 m 308 384 l 334 384 l 334 351 l 308 351 l 308 384 m 335 404 l 354 404 l 354 391 l 335 391 l 335 404 m 355 429 l 418 429 l 418 411 l 355 411 l 355 429 m 330 496 l 350 496 l 350 439 l 330 439 l 330 496 m 465 544 l 442 544 l 442 576 l 465 576 l 465 544 m 441 524 l 420 524 l 420 537 l 441 537 l 441 524 m 418 499 l 355 499 l 355 517 l 418 517 l 418 499 m 445 431 l 425 431 l 425 490 l 445 490 l 445 431 z "},"ı":{"ha":323,"x_min":52,"x_max":273,"o":"m 123 688 l 273 688 l 199 0 l 52 0 l 123 688 z "},"ˆ":{"ha":468,"x_min":35,"x_max":437,"o":"m 35 724 l 47 846 l 254 993 l 437 846 l 423 726 l 237 831 l 35 724 z "},"˜":{"ha":521,"x_min":58,"x_max":484,"o":"m 258 804 q 199 836 213 837 q 102 770 164 836 l 58 879 q 213 951 122 948 q 304 915 255 952 q 369 878 354 878 q 444 921 387 878 l 484 815 q 420 778 460 793 q 359 762 381 762 q 258 804 316 762 z "},"˘":{"ha":479,"x_min":43,"x_max":435,"o":"m 43 891 l 151 905 q 237 838 175 840 q 332 906 294 838 l 435 891 q 229 747 370 747 q 43 891 81 747 z "},"˙":{"ha":328,"x_min":76,"x_max":279,"o":"m 76 800 q 112 867 80 841 q 187 894 144 894 q 256 866 229 894 q 279 800 283 838 q 243 733 275 761 q 168 705 210 705 q 98 733 125 705 q 76 800 72 761 z "},"˚":{"ha":423,"x_min":113,"x_max":365,"o":"m 227 800 q 139 834 171 800 q 113 921 107 868 q 157 1006 118 972 q 251 1040 195 1040 q 338 1006 307 1040 q 365 921 370 972 q 321 834 359 868 q 227 800 282 800 m 245 981 q 193 921 199 981 q 232 860 186 860 q 285 921 278 860 q 245 981 292 981 z "},"¸":{"ha":283,"x_min":7,"x_max":273,"o":"m 7 -244 l 68 -205 q 144 -252 104 -254 q 168 -231 155 -252 q 183 -197 182 -210 q 177 -163 186 -179 q 160 -148 168 -148 q 107 -170 119 -148 l 31 -146 l 56 5 l 167 7 l 157 -50 l 161 -50 q 250 -94 220 -50 q 273 -180 275 -132 q 236 -278 267 -235 q 134 -332 197 -332 q 7 -244 37 -332 z "},"˝":{"ha":502,"x_min":16,"x_max":545,"o":"m 236 779 l 406 937 l 545 937 l 374 779 l 236 779 m 16 779 l 187 937 l 327 937 l 157 779 l 16 779 z "},"ˇ":{"ha":468,"x_min":49,"x_max":453,"o":"m 453 1006 l 438 871 l 232 724 l 49 871 l 64 1005 l 247 884 l 453 1006 z "},"Ł":{"ha":696,"x_min":-4,"x_max":576,"o":"m 88 510 l 127 890 l 292 890 l 258 574 l 347 606 l 331 449 l 241 415 l 213 146 l 576 146 l 562 0 l 34 0 l 71 353 l -4 326 l 12 481 l 88 510 z "},"ł":{"ha":391,"x_min":11,"x_max":363,"o":"m 201 0 l 49 0 l 91 399 l 11 355 l 30 517 l 109 559 l 142 891 l 294 891 l 269 644 l 363 694 l 349 534 l 251 483 l 201 0 z "},"¦":{"ha":252,"x_min":75,"x_max":182,"o":"m 75 387 l 182 387 l 182 -24 l 75 -24 l 75 387 m 75 911 l 182 911 l 182 500 l 75 500 l 75 911 z "}}}
